<svg width="24" height="24" viewBox="0 0 24 24" fill="none" xmlns="http://www.w3.org/2000/svg">
<path d="M11.2931 20.364C11.4807 20.5514 11.735 20.6567 12.0001 20.6567C12.2653 20.6567 12.5196 20.5514 12.7071 20.364L18.3641 14.707C18.4597 14.6147 18.5358 14.5044 18.5882 14.3824C18.6407 14.2604 18.6682 14.1291 18.6694 13.9964C18.6705 13.8636 18.6452 13.7319 18.595 13.609C18.5447 13.4861 18.4704 13.3744 18.3765 13.2806C18.2826 13.1867 18.171 13.1124 18.0481 13.0621C17.9252 13.0118 17.7935 12.9865 17.6607 12.9877C17.528 12.9889 17.3967 13.0164 17.2747 13.0689C17.1527 13.1213 17.0424 13.1974 16.9501 13.293L13.0001 17.243V3.99995C13.0001 3.73474 12.8948 3.48038 12.7073 3.29284C12.5197 3.10531 12.2654 2.99995 12.0001 2.99995C11.7349 2.99995 11.4806 3.10531 11.293 3.29284C11.1055 3.48038 11.0001 3.73474 11.0001 3.99995V17.243L7.05014 13.293C6.86154 13.1108 6.60894 13.01 6.34674 13.0123C6.08455 13.0146 5.83373 13.1197 5.64833 13.3051C5.46292 13.4905 5.35775 13.7414 5.35547 14.0036C5.35319 14.2657 5.45399 14.5183 5.63614 14.707L11.2931 20.364Z" fill="black"/>
</svg>
