<svg width="25" height="24" viewBox="0 0 25 24" fill="none" xmlns="http://www.w3.org/2000/svg">
<path d="M18.0003 19C18.3981 19 18.7796 18.842 19.0609 18.5607C19.3422 18.2794 19.5003 17.8978 19.5003 17.5V13.837C19.5003 13.4392 19.3422 13.0576 19.0609 12.7763C18.7796 12.495 18.3981 12.337 18.0003 12.337H15.9183C15.9183 11.81 15.9493 11.283 16.0113 10.756C16.1043 10.198 16.2593 9.702 16.4763 9.268C16.6933 8.834 16.9728 8.4925 17.3148 8.2435C17.6548 7.9645 18.0888 7.825 18.6168 7.825V5.5C17.7488 5.5 16.9888 5.686 16.3368 6.058C15.6893 6.42531 15.133 6.93393 14.7093 7.546C14.2827 8.21972 13.9686 8.95838 13.7793 9.733C13.5878 10.5876 13.4942 11.4612 13.5003 12.337V17.5C13.5003 17.8978 13.6583 18.2794 13.9396 18.5607C14.2209 18.842 14.6024 19 15.0003 19H18.0003ZM9.00027 19C9.3981 19 9.77963 18.842 10.0609 18.5607C10.3422 18.2794 10.5003 17.8978 10.5003 17.5V13.837C10.5003 13.4392 10.3422 13.0576 10.0609 12.7763C9.77963 12.495 9.3981 12.337 9.00027 12.337H6.91827C6.91827 11.81 6.94927 11.283 7.01127 10.756C7.10527 10.198 7.26027 9.702 7.47627 9.268C7.69327 8.834 7.97277 8.4925 8.31477 8.2435C8.65477 7.9645 9.08877 7.825 9.61677 7.825V5.5C8.74877 5.5 7.98877 5.686 7.33677 6.058C6.68929 6.42531 6.13298 6.93393 5.70927 7.546C5.28269 8.21972 4.96858 8.95838 4.77927 9.733C4.58785 10.5876 4.49425 11.4612 4.50027 12.337V17.5C4.50027 17.8978 4.65831 18.2794 4.93961 18.5607C5.22092 18.842 5.60245 19 6.00027 19H9.00027Z" fill="#666666"/>
</svg>
