<svg width="22" height="22" viewBox="0 0 22 22" fill="none" xmlns="http://www.w3.org/2000/svg">
<path d="M18 10.5H18.5C19.435 10.5 19.902 10.5 20.25 10.701C20.478 10.8326 20.6674 11.022 20.799 11.25C21 11.598 21 12.065 21 13C21 13.935 21 14.402 20.799 14.75C20.6674 14.978 20.478 15.1674 20.25 15.299C19.902 15.5 19.435 15.5 18.5 15.5H18M4 10.5H3.5C2.565 10.5 2.098 10.5 1.75 10.701C1.52199 10.8326 1.33265 11.022 1.201 11.25C1 11.598 1 12.065 1 13C1 13.935 1 14.402 1.201 14.75C1.33265 14.978 1.52199 15.1674 1.75 15.299C2.098 15.5 2.565 15.5 3.5 15.5H4M10 7H12C14.828 7 16.243 7 17.121 7.879C18 8.757 18 10.172 18 13C18 15.828 18 17.243 17.121 18.121C16.243 19 14.828 19 12 19H11C11 19 10.5 21 7 21C7 21 8 19.991 8 18.983C6.447 18.936 5.52 18.763 4.879 18.121C4 17.243 4 15.828 4 13C4 10.172 4 8.757 4.879 7.879C5.757 7 7.172 7 10 7Z" stroke="black" stroke-width="1.5" stroke-linejoin="round"/>
<path d="M12.5 2.5C12.5 2.89782 12.342 3.27936 12.0607 3.56066C11.7794 3.84196 11.3978 4 11 4C10.6022 4 10.2206 3.84196 9.93934 3.56066C9.65804 3.27936 9.5 2.89782 9.5 2.5C9.5 2.10218 9.65804 1.72064 9.93934 1.43934C10.2206 1.15804 10.6022 1 11 1C11.3978 1 11.7794 1.15804 12.0607 1.43934C12.342 1.72064 12.5 2.10218 12.5 2.5Z" stroke="black" stroke-width="1.5"/>
<path d="M11 4V7M8 11V12M14 11V12" stroke="black" stroke-width="1.5" stroke-linecap="round" stroke-linejoin="round"/>
<path d="M9 15.5C9 15.5 9.667 16 11 16C12.333 16 13 15.5 13 15.5" stroke="black" stroke-width="1.5" stroke-linecap="round"/>
</svg>
