<svg width="20" height="20" viewBox="0 0 20 20" fill="none" xmlns="http://www.w3.org/2000/svg">
<path d="M10 17.5C8.51664 17.5 7.06659 17.0601 5.83322 16.236C4.59985 15.4119 3.63856 14.2406 3.0709 12.8701C2.50324 11.4997 2.35472 9.99168 2.64411 8.53683C2.9335 7.08197 3.64781 5.7456 4.6967 4.6967C5.74559 3.64781 7.08196 2.9335 8.53682 2.64411C9.99168 2.35472 11.4997 2.50325 12.8701 3.07091C14.2406 3.63856 15.4119 4.59986 16.236 5.83323C17.0601 7.0666 17.5 8.51664 17.5 10C17.5 11.24 17.2 12.4083 16.6667 13.4392L17.5 17.5L13.4392 16.6667C12.4092 17.1992 11.2392 17.5 10 17.5Z" stroke="black" stroke-width="1.5" stroke-linecap="round" stroke-linejoin="round"/>
</svg>
