<svg width="52" height="52" viewBox="0 0 52 52" fill="none" xmlns="http://www.w3.org/2000/svg">
<path fill-rule="evenodd" clip-rule="evenodd" d="M25.9998 4.86914C14.3764 4.86914 4.95429 14.2912 4.95429 25.9147C4.95429 37.5382 14.3764 46.9603 25.9998 46.9603C37.6233 46.9603 47.0454 37.5382 47.0454 25.9147C47.0454 14.2912 37.6233 4.86914 25.9998 4.86914ZM25.9998 30.1238C28.5642 30.1195 31.0411 31.0555 32.9617 32.7545C33.3803 33.124 33.635 33.6447 33.6698 34.202C33.7045 34.7593 33.5164 35.3075 33.1469 35.7261C32.7774 36.1448 32.2568 36.3995 31.6995 36.4342C31.1422 36.4689 30.5939 36.2808 30.1753 35.9113C29.0221 34.8943 27.5374 34.3331 25.9998 34.3329C24.3983 34.3329 22.9377 34.9264 21.8244 35.9113C21.4058 36.2808 20.8575 36.4689 20.3002 36.4342C19.7429 36.3995 19.2223 36.1448 18.8528 35.7261C18.4833 35.3075 18.2952 34.7593 18.3299 34.202C18.3647 33.6447 18.6194 33.124 19.038 32.7545C20.9586 31.0555 23.4355 30.1195 25.9998 30.1238ZM32.9302 18.1131C33.3089 17.7357 33.8171 17.5165 34.3515 17.5002C34.886 17.4839 35.4066 17.6716 35.8077 18.0252C36.2087 18.3789 36.4601 18.8719 36.5108 19.4042C36.5615 19.9365 36.4077 20.4681 36.0807 20.8911L35.906 21.089L35.2894 21.7056L35.906 22.3222C36.2834 22.701 36.5026 23.2092 36.5189 23.7436C36.5352 24.2781 36.3475 24.7987 35.9939 25.1997C35.6402 25.6008 35.1472 25.8522 34.6149 25.9029C34.0826 25.9536 33.551 25.7998 33.128 25.4727L32.9302 25.2981L32.3135 24.6814L31.6969 25.2981C31.3182 25.6755 30.8099 25.8947 30.2755 25.911C29.741 25.9273 29.2204 25.7396 28.8194 25.3859C28.4183 25.0323 28.1669 24.5393 28.1162 24.007C28.0655 23.4747 28.2193 22.9431 28.5464 22.5201L28.721 22.3222L29.3377 21.7056L28.721 21.089C28.3436 20.7102 28.1245 20.202 28.1081 19.6676C28.0918 19.1331 28.2795 18.6125 28.6332 18.2114C28.9868 17.8104 29.4798 17.559 30.0121 17.5083C30.5444 17.4576 31.0761 17.6114 31.4991 17.9384L31.6969 18.1131L32.3135 18.7297L32.9302 18.1131ZM23.2787 18.1131C23.6732 18.5078 23.8948 19.043 23.8948 19.601C23.8948 20.1591 23.6732 20.6943 23.2787 21.089L22.662 21.7056L23.2787 22.3222C23.662 22.7191 23.8741 23.2508 23.8694 23.8026C23.8646 24.3544 23.6432 24.8822 23.253 25.2724C22.8628 25.6626 22.335 25.884 21.7832 25.8888C21.2314 25.8936 20.6997 25.6814 20.3028 25.2981L19.6862 24.6814L19.0695 25.2981C18.6726 25.6814 18.141 25.8936 17.5892 25.8888C17.0374 25.884 16.5095 25.6626 16.1193 25.2724C15.7291 24.8822 15.5078 24.3544 15.503 23.8026C15.4982 23.2508 15.7103 22.7191 16.0937 22.3222L16.7103 21.7056L16.0937 21.089C15.7103 20.692 15.4982 20.1604 15.503 19.6086C15.5078 19.0568 15.7291 18.529 16.1193 18.1387C16.5095 17.7485 17.0374 17.5272 17.5892 17.5224C18.141 17.5176 18.6726 17.7298 19.0695 18.1131L19.6862 18.7297L20.3028 18.1131C20.6975 17.7186 21.2327 17.4969 21.7907 17.4969C22.3488 17.4969 22.884 17.7186 23.2787 18.1131Z" fill="#ED736A"/>
</svg>
