<svg width="22" height="22" viewBox="0 0 22 22" fill="none" xmlns="http://www.w3.org/2000/svg">
<path d="M12.3748 7.3335H3.6665M3.6665 5.50016V17.4168C3.6665 17.6599 3.76308 17.8931 3.93499 18.065C4.1069 18.2369 4.34006 18.3335 4.58317 18.3335H17.4165C17.6596 18.3335 17.8928 18.2369 18.0647 18.065C18.2366 17.8931 18.3332 17.6599 18.3332 17.4168V8.25016C18.3332 8.00705 18.2366 7.77389 18.0647 7.60198C17.8928 7.43007 17.6596 7.3335 17.4165 7.3335H12.8038C12.6695 7.33345 12.5368 7.30386 12.4151 7.24683C12.2935 7.18981 12.1858 7.10673 12.0998 7.0035L10.3582 4.9135C10.2722 4.81026 10.1645 4.72719 10.0429 4.67016C9.92123 4.61313 9.78853 4.58355 9.65417 4.5835H4.58317C4.34006 4.5835 4.1069 4.68007 3.93499 4.85198C3.76308 5.02389 3.6665 5.25705 3.6665 5.50016Z" stroke="black" stroke-width="2" stroke-linecap="round" stroke-linejoin="round"/>
</svg>
