<svg width="22" height="22" viewBox="0 0 22 22" fill="none" xmlns="http://www.w3.org/2000/svg">
<path d="M10.3125 2.75005C10.4948 2.75005 10.6697 2.82249 10.7986 2.95142C10.9276 3.08035 11 3.25522 11 3.43755C11 3.61989 10.9276 3.79476 10.7986 3.92369C10.6697 4.05262 10.4948 4.12505 10.3125 4.12505H6.1875C5.64049 4.12505 5.11589 4.34235 4.72909 4.72915C4.3423 5.11594 4.125 5.64054 4.125 6.18755V15.8126C4.125 16.3596 4.3423 16.8842 4.72909 17.271C5.11589 17.6578 5.64049 17.8751 6.1875 17.8751H15.8125C16.3595 17.8751 16.8841 17.6578 17.2709 17.271C17.6577 16.8842 17.875 16.3596 17.875 15.8126V13.0626C17.875 12.8802 17.9474 12.7053 18.0764 12.5764C18.2053 12.4475 18.3802 12.3751 18.5625 12.3751C18.7448 12.3751 18.9197 12.4475 19.0486 12.5764C19.1776 12.7053 19.25 12.8802 19.25 13.0626V15.8126C19.25 16.7242 18.8878 17.5986 18.2432 18.2432C17.5985 18.8879 16.7242 19.2501 15.8125 19.2501H6.1875C5.27582 19.2501 4.40148 18.8879 3.75682 18.2432C3.11216 17.5986 2.75 16.7242 2.75 15.8126V6.18755C2.75 5.27587 3.11216 4.40153 3.75682 3.75687C4.40148 3.11222 5.27582 2.75005 6.1875 2.75005H10.3125ZM14.8225 1.4438C14.9382 1.38726 15.0675 1.36437 15.1957 1.37774C15.3238 1.39111 15.4456 1.4402 15.5471 1.51943L21.7346 6.33193C21.8174 6.39619 21.8844 6.47854 21.9305 6.57267C21.9766 6.66681 22.0006 6.77024 22.0006 6.87505C22.0006 6.97987 21.9766 7.0833 21.9305 7.17743C21.8844 7.27157 21.8174 7.35391 21.7346 7.41818L15.5471 12.2307C15.4455 12.3097 15.3237 12.3587 15.1957 12.3719C15.0676 12.3851 14.9384 12.3621 14.8228 12.3055C14.7071 12.2489 14.6097 12.161 14.5416 12.0517C14.4735 11.9425 14.4374 11.8163 14.4375 11.6876V9.65943C11.3685 9.97568 9.4545 12.3723 8.393 14.3331L8.17712 14.7456C8.10776 14.884 7.99371 14.9949 7.85344 15.0604C7.71318 15.1259 7.5549 15.1422 7.40425 15.1065C7.25359 15.0709 7.11937 14.9855 7.02332 14.8641C6.92727 14.7426 6.87501 14.5924 6.875 14.4376C6.875 11.5831 7.58725 9.01868 8.98838 7.15005C10.2781 5.4313 12.1316 4.33543 14.4375 4.15393V2.06255C14.4372 1.9337 14.4732 1.80737 14.5413 1.69797C14.6093 1.58857 14.7068 1.5005 14.8225 1.4438ZM15.8125 4.81255C15.8125 4.99489 15.7401 5.16976 15.6111 5.29869C15.4822 5.42762 15.3073 5.50005 15.125 5.50005C12.9388 5.50005 11.2516 6.42543 10.0897 7.97505C9.35137 8.95955 8.81375 10.2108 8.51675 11.6601C9.93025 9.8973 12.0656 8.25005 15.125 8.25005C15.3073 8.25005 15.4822 8.32249 15.6111 8.45142C15.7401 8.58035 15.8125 8.75522 15.8125 8.93755V10.2823L20.1919 6.87505L15.8125 3.46643V4.81255Z" fill="black"/>
</svg>
