<svg width="51" height="51" viewBox="0 0 51 51" fill="none" xmlns="http://www.w3.org/2000/svg">
<path d="M25.2548 4.61182C13.6503 4.61182 4.20923 14.0529 4.20923 25.6574C4.20923 37.2619 13.6503 46.7029 25.2548 46.7029C36.8593 46.7029 46.3004 37.2619 46.3004 25.6574C46.3004 14.0529 36.8593 4.61182 25.2548 4.61182ZM32.606 19.3437C33.0256 19.333 33.4431 19.4064 33.8339 19.5596C34.2247 19.7128 34.5809 19.9427 34.8814 20.2358C35.1819 20.5288 35.4207 20.8791 35.5837 21.2659C35.7467 21.6527 35.8306 22.0682 35.8305 22.4879C35.8304 22.9077 35.7462 23.3232 35.5829 23.7099C35.4196 24.0966 35.1806 24.4466 34.8799 24.7395C34.5792 25.0323 34.2228 25.262 33.832 25.4149C33.4411 25.5679 33.0235 25.641 32.6039 25.63C31.7844 25.6085 31.0056 25.2678 30.4337 24.6805C29.8617 24.0931 29.5418 23.3056 29.5421 22.4858C29.5424 21.666 29.8628 20.8787 30.4352 20.2918C31.0075 19.7048 31.7865 19.3646 32.606 19.3437ZM17.8888 19.3437C18.3035 19.3438 18.7142 19.4257 19.0972 19.5845C19.4803 19.7433 19.8284 19.976 20.1215 20.2694C20.4146 20.5627 20.6471 20.9109 20.8057 21.2941C20.9643 21.6773 21.0458 22.0879 21.0457 22.5026C21.0455 22.9173 20.9637 23.328 20.8049 23.711C20.6461 24.0941 20.4133 24.4422 20.12 24.7353C19.8267 25.0284 19.4785 25.2609 19.0953 25.4195C18.7121 25.5781 18.3014 25.6596 17.8867 25.6595C17.0492 25.6592 16.2461 25.3262 15.6541 24.7338C15.0621 24.1414 14.7296 23.3381 14.7299 22.5005C14.7302 21.663 15.0632 20.8599 15.6556 20.2679C16.248 19.6759 17.0513 19.3434 17.8888 19.3437ZM25.2548 38.2847C16.8366 38.2847 14.732 29.8665 14.732 29.8665H35.7776C35.7776 29.8665 33.673 38.2847 25.2548 38.2847Z" fill="#EDE074"/>
</svg>
