<svg width="24" height="24" viewBox="0 0 24 24" fill="none" xmlns="http://www.w3.org/2000/svg">
<path d="M3.04798 11.769C3.05056 10.6301 3.29038 9.50417 3.75215 8.46305C4.21391 7.42193 4.8875 6.48841 5.72998 5.722L8.16698 8.17V2H1.99998L4.27598 4.262C2.83109 5.60562 1.80379 7.33699 1.31693 9.24905C0.830064 11.1611 0.90424 13.1729 1.53058 15.044C2.15693 16.915 3.30893 18.566 4.84884 19.7996C6.38874 21.0331 8.25137 21.7971 10.214 22V19.923C8.23262 19.6668 6.41238 18.6978 5.09354 17.1972C3.77469 15.6965 3.04753 13.7668 3.04798 11.769ZM23 12.283C23.0066 9.73328 22.0687 7.27145 20.3672 5.37252C18.6657 3.47359 16.3211 2.27214 13.786 2V4.077C15.7719 4.3445 17.5931 5.32394 18.9111 6.83328C20.2292 8.34261 20.9544 10.2792 20.952 12.283C20.9502 13.4144 20.7105 14.5329 20.2484 15.5657C19.7864 16.5985 19.1123 17.5226 18.27 18.278L15.786 15.83V22H21.976L19.724 19.738C20.7566 18.79 21.581 17.6379 22.1449 16.3545C22.7088 15.0712 23 13.6848 23 12.283Z" fill="black" fill-opacity="0.8"/>
<path d="M12.29 16L11.753 15.51C9.84297 13.778 8.58097 12.635 8.58097 11.233C8.5783 10.9643 8.62924 10.6979 8.73081 10.4491C8.83238 10.2004 8.98255 9.97448 9.17252 9.78452C9.36248 9.59455 9.58843 9.44438 9.83715 9.34281C10.0859 9.24124 10.3523 9.1903 10.621 9.19297C10.9386 9.19517 11.252 9.2655 11.5401 9.39919C11.8282 9.53289 12.0842 9.72685 12.291 9.96797C12.4976 9.72698 12.7535 9.53309 13.0414 9.3994C13.3293 9.26571 13.6425 9.19532 13.96 9.19297C14.2286 9.1903 14.4951 9.24124 14.7438 9.34281C14.9925 9.44438 15.2185 9.59455 15.4084 9.78452C15.5984 9.97448 15.7486 10.2004 15.8501 10.4491C15.9517 10.6979 16.0026 10.9643 16 11.233C16 12.635 14.739 13.778 12.828 15.514L12.29 16Z" fill="black" fill-opacity="0.8"/>
</svg>
