<svg width="173" height="52" viewBox="0 0 173 52" fill="none" xmlns="http://www.w3.org/2000/svg">
<mask id="path-1-outside-1_1148_466" maskUnits="userSpaceOnUse" x="24" y="9" width="31" height="34" fill="black">
<rect fill="white" x="24" y="9" width="31" height="34"/>
<path d="M48.5319 27.3547L48.5745 27.4398C48.9946 28.0631 49.3063 28.753 49.4964 29.4803L49.5169 29.5587L49.6618 30.6784L49.6696 30.8393C49.6781 31.0135 49.4392 31.0705 49.368 30.9113C49.3626 30.899 49.3556 30.8875 49.3472 30.877L49.269 30.7793C49.2153 30.7123 49.1694 30.6393 49.1322 30.5619L48.9117 30.1033C48.688 29.6378 48.401 29.2055 48.0588 28.8187L48.0192 28.7739L47.9318 28.6562C47.7424 28.4014 47.406 28.3047 47.1103 28.4202L47.057 28.441C46.9222 28.4937 46.8128 28.5964 46.7519 28.7277C46.7174 28.8018 46.6996 28.8826 46.6996 28.9644V29.0061C46.6996 29.1614 46.7478 29.3129 46.8375 29.4396L46.9773 29.6372L47.4732 30.265L47.711 30.6459C47.8132 30.8097 47.8916 30.9872 47.9437 31.173C47.9938 31.3516 48.0192 31.5362 48.0192 31.7216V32.1144C48.0192 32.7482 47.8159 33.3652 47.4391 33.8748C47.3028 34.0593 47.1454 34.2272 46.9703 34.3754L46.646 34.6497C46.5146 34.7608 46.3747 34.8616 46.2276 34.9509L45.9736 35.1053C45.946 35.1221 45.9167 35.136 45.8862 35.1467L45.7871 35.1815C45.6162 35.2415 45.4277 35.1612 45.3525 34.9963C45.3017 34.8848 45.3129 34.7548 45.3821 34.6537L45.4852 34.5028C45.7794 33.9345 46.0012 33.3229 46.1377 32.6978L46.3297 31.7117C46.3639 31.5363 46.3432 31.3545 46.2706 31.1912L46.2575 31.1619C46.1803 30.9884 46.0428 30.8488 45.8705 30.7689L45.839 30.7543C45.7319 30.7046 45.6135 30.6846 45.4961 30.6965C45.255 30.7207 45.0468 30.8754 44.954 31.0992L44.8535 31.3412C44.8257 31.4083 44.8046 31.478 44.7905 31.5493L44.7245 31.8836C44.6699 32.1604 44.5895 32.4315 44.4843 32.6933L44.4556 32.765C44.2851 33.1893 44.0609 33.5899 43.7883 33.9571L43.4425 34.4231C43.2487 34.6842 43.0195 34.917 42.7614 35.1149C42.4097 35.3845 42.0101 35.5849 41.5837 35.7054L41.5134 35.7252L41.4145 35.7408C41.0184 35.8034 40.6126 35.746 40.2494 35.5759C39.955 35.438 39.6985 35.2308 39.5019 34.972L39.079 34.4154C38.7694 33.8993 38.5092 33.3551 38.302 32.79L38.2938 32.7674L38.2341 32.5028C38.0877 31.8529 38.0547 31.1826 38.1367 30.5214C38.2412 29.947 38.3946 29.3825 38.5951 28.8341L38.7892 28.3031L39.1681 27.496C39.5995 26.577 40.1963 25.7451 40.9287 25.0421L41.912 24.02L42.7577 23.0507L43.1205 22.5742C43.341 22.233 43.4805 21.8459 43.5284 21.4425L43.5309 21.4213V20.8477L43.5243 20.7927C43.4809 20.4311 43.2737 20.1096 42.9624 19.9208C42.7772 19.8084 42.5647 19.749 42.3481 19.749H42.1987C41.974 19.749 41.7515 19.7931 41.5437 19.8787L41.308 19.9759C40.9177 20.1368 40.5657 20.378 40.2748 20.684L39.8207 21.1616L39.3608 21.7915C38.9803 22.3125 38.6413 22.8625 38.3467 23.4365L38.0259 24.0616C37.8906 24.3251 37.7313 24.5755 37.5499 24.8095L37.2663 25.1753C36.7988 25.7784 36.5451 26.5198 36.5451 27.2829C36.5451 27.139 36.5187 26.9963 36.4673 26.8619L36.2665 26.3369C36.05 25.7709 35.9579 25.1648 35.9965 24.56L36.0431 23.8299L36.1524 23.1972C36.3231 22.2086 36.5861 21.238 36.9377 20.2984C37.1525 19.6328 37.4358 18.9914 37.7831 18.3843L37.8226 18.3154L38.1899 17.7751C38.4587 17.3795 38.7937 17.0257 39.1727 16.734C39.4136 16.5487 39.6761 16.3865 39.9499 16.2546C40.3536 16.0601 40.7845 15.9283 41.228 15.8637L41.6256 15.8058C42.0124 15.7495 42.4047 15.7412 42.7936 15.7809C43.5808 15.8615 44.3355 16.1374 44.9891 16.5835L45.2576 16.7669L45.3413 16.8415C45.9241 17.3615 46.3918 17.9976 46.7144 18.709L46.7607 18.8111C46.8606 19.0315 46.9417 19.2599 47.0031 19.494C47.1495 20.0525 47.1815 20.6349 47.0973 21.2061L47.0173 21.7483C46.9605 22.1332 46.8715 22.5126 46.7514 22.8827L46.7371 22.9267C46.5019 23.6513 46.1579 24.336 45.7169 24.9573L45.4247 25.369C45.017 25.9435 44.5541 26.4767 44.0428 26.9612L42.4958 28.4269C42.2519 28.6579 42.0256 28.9067 41.8186 29.1713L41.588 29.4661C41.4582 29.632 41.3456 29.8107 41.252 29.9994L41.1204 30.2645C41.0686 30.3688 41.0329 30.4805 41.0143 30.5955L40.9759 30.8344C40.946 31.0207 40.9999 31.2107 41.1232 31.3535C41.2445 31.494 41.421 31.5748 41.6067 31.5748H41.634H41.762C41.8606 31.5748 41.9578 31.5515 42.0457 31.5067C42.1291 31.4642 42.202 31.4035 42.2588 31.329L42.5918 30.8928L42.9148 30.3818L43.3981 29.5587L44.1834 28.5231L44.903 27.7582C45.413 27.216 45.983 26.7336 46.6021 26.3204L46.7564 26.2174C47.2212 25.9071 47.6523 25.5493 48.0428 25.1496L48.2308 24.9572C48.6056 24.5736 48.9276 24.1417 49.1882 23.6729C49.6666 22.6449 49.8947 21.5183 49.8538 20.3851L49.8375 19.9327L49.7785 19.5891C49.6095 18.6033 49.2848 17.6507 48.8166 16.7669L48.2057 15.902C47.9852 15.5898 47.7378 15.2974 47.4665 15.0281C46.8995 14.4655 46.2348 14.0109 45.5049 13.6866L45.4689 13.6706C45.0839 13.4995 44.6838 13.3646 44.2738 13.2677L44.113 13.2297C43.4675 13.0771 42.8065 13 42.1432 13H41.8354C41.2939 13 40.7532 13.0536 40.2222 13.1597C39.7094 13.2622 39.207 13.4135 38.7229 13.6114C38.0592 13.8828 37.4338 14.2399 36.8628 14.6735L36.3842 15.037C35.9688 15.3525 35.5833 15.7055 35.2324 16.0915L35.1533 16.1786C34.8738 16.4861 34.6216 16.8173 34.3995 17.1686C33.9862 17.822 33.6814 18.538 33.4968 19.2888L33.4325 19.5503C33.323 19.996 33.2483 20.4496 33.2093 20.9069L33.1894 21.1406V21.3191C33.1894 22.0441 33.3324 22.7619 33.6103 23.4316C33.7203 23.6967 33.8508 23.9528 34.0007 24.1976L34.5179 25.0421C34.9209 25.5894 35.218 26.2073 35.3937 26.8639L35.4476 27.0652L35.8236 28.3031L36.1249 29.2448L36.3726 30.3604L36.3948 30.5147C36.5432 31.5492 36.5936 32.5955 36.5451 33.6395V33.7756C36.5451 33.8122 36.5007 33.8306 36.4748 33.8047C36.4694 33.7993 36.4656 33.7925 36.4639 33.7851L36.3726 33.4041L36.252 32.9753L36.1249 32.6193L35.9314 32.07L35.6934 31.5206L35.4602 30.8143L35.3032 30.3604L35.2644 30.2374C34.9809 29.3388 34.6263 28.4642 34.2038 27.6219L33.6493 26.655L32.9437 25.7442C32.7416 25.4832 32.513 25.2439 32.2617 25.0299C31.8776 24.7028 31.4443 24.4383 30.9777 24.2464L30.1268 23.8962L28.7011 23.2525L28.4202 23.1221C28.2757 23.0551 28.1162 23.1803 28.147 23.3366C28.1499 23.3515 28.1511 23.3667 28.1505 23.3818L28.0518 25.9417C28.0175 26.8295 28.1326 27.7167 28.3924 28.5664C28.5455 29.0671 28.7478 29.5515 28.9963 30.0124L29.4079 30.7755C29.8847 31.53 30.4666 32.2127 31.1361 32.803L31.4618 33.0902L33.401 34.615C33.5373 34.7222 33.7247 34.5715 33.6493 34.4154L33.0356 32.7674L32.4826 31.4421L32.2074 30.7358L31.6819 29.4997L31.1095 28.5495C31.0967 28.5283 31.0873 28.5052 31.0817 28.481C31.0291 28.2558 31.2973 28.0964 31.47 28.2501L32.4464 29.1187C32.4705 29.1401 32.493 29.1633 32.5137 29.1881L32.9538 29.7156L33.3825 30.2858C33.7645 30.7938 34.0944 31.339 34.3673 31.913L34.8385 33.0425L34.8526 33.0764C35.0522 33.5555 35.2932 34.0164 35.5727 34.4538C35.8604 34.9041 36.1879 35.3277 36.5512 35.7195L37.2664 36.4908L37.9041 37.1339C38.1633 37.3954 38.4463 37.6321 38.7495 37.8409C39.0688 38.0609 39.4089 38.2489 39.7649 38.4024L40.0447 38.523C40.323 38.643 40.6103 38.7406 40.9041 38.815C41.3886 38.9378 41.8872 38.9965 42.387 38.9897L42.6187 38.9866C43.1369 38.9795 43.653 38.9186 44.1587 38.8048L44.8116 38.6579L45.9321 38.2566L46.9254 37.7933C47.5478 37.4331 48.1085 36.9754 48.5861 36.4377L48.8409 36.1508C49.3842 35.5794 49.8266 34.92 50.1493 34.2006L50.1709 34.1524L50.2903 33.81C50.5639 33.0253 50.78 32.2218 50.9369 31.4057L51 30.7358V30.265V29.5587L50.9644 29.1608C50.9461 28.9555 50.9117 28.752 50.8617 28.552C50.8072 28.3341 50.7343 28.1213 50.6437 27.9157L50.5377 27.6752L50.3021 27.2829C50.1558 27.0598 49.9527 26.8799 49.7137 26.7614L49.6644 26.737C49.5664 26.6885 49.4629 26.6519 49.3562 26.628L49.3047 26.6165C49.2412 26.6024 49.1765 26.5952 49.1115 26.5952H49.0011C48.8967 26.5952 48.7946 26.6264 48.708 26.6847C48.4893 26.832 48.4139 27.1188 48.5319 27.3547Z"/>
</mask>
<path d="M48.5319 27.3547L48.5745 27.4398C48.9946 28.0631 49.3063 28.753 49.4964 29.4803L49.5169 29.5587L49.6618 30.6784L49.6696 30.8393C49.6781 31.0135 49.4392 31.0705 49.368 30.9113C49.3626 30.899 49.3556 30.8875 49.3472 30.877L49.269 30.7793C49.2153 30.7123 49.1694 30.6393 49.1322 30.5619L48.9117 30.1033C48.688 29.6378 48.401 29.2055 48.0588 28.8187L48.0192 28.7739L47.9318 28.6562C47.7424 28.4014 47.406 28.3047 47.1103 28.4202L47.057 28.441C46.9222 28.4937 46.8128 28.5964 46.7519 28.7277C46.7174 28.8018 46.6996 28.8826 46.6996 28.9644V29.0061C46.6996 29.1614 46.7478 29.3129 46.8375 29.4396L46.9773 29.6372L47.4732 30.265L47.711 30.6459C47.8132 30.8097 47.8916 30.9872 47.9437 31.173C47.9938 31.3516 48.0192 31.5362 48.0192 31.7216V32.1144C48.0192 32.7482 47.8159 33.3652 47.4391 33.8748C47.3028 34.0593 47.1454 34.2272 46.9703 34.3754L46.646 34.6497C46.5146 34.7608 46.3747 34.8616 46.2276 34.9509L45.9736 35.1053C45.946 35.1221 45.9167 35.136 45.8862 35.1467L45.7871 35.1815C45.6162 35.2415 45.4277 35.1612 45.3525 34.9963C45.3017 34.8848 45.3129 34.7548 45.3821 34.6537L45.4852 34.5028C45.7794 33.9345 46.0012 33.3229 46.1377 32.6978L46.3297 31.7117C46.3639 31.5363 46.3432 31.3545 46.2706 31.1912L46.2575 31.1619C46.1803 30.9884 46.0428 30.8488 45.8705 30.7689L45.839 30.7543C45.7319 30.7046 45.6135 30.6846 45.4961 30.6965C45.255 30.7207 45.0468 30.8754 44.954 31.0992L44.8535 31.3412C44.8257 31.4083 44.8046 31.478 44.7905 31.5493L44.7245 31.8836C44.6699 32.1604 44.5895 32.4315 44.4843 32.6933L44.4556 32.765C44.2851 33.1893 44.0609 33.5899 43.7883 33.9571L43.4425 34.4231C43.2487 34.6842 43.0195 34.917 42.7614 35.1149C42.4097 35.3845 42.0101 35.5849 41.5837 35.7054L41.5134 35.7252L41.4145 35.7408C41.0184 35.8034 40.6126 35.746 40.2494 35.5759C39.955 35.438 39.6985 35.2308 39.5019 34.972L39.079 34.4154C38.7694 33.8993 38.5092 33.3551 38.302 32.79L38.2938 32.7674L38.2341 32.5028C38.0877 31.8529 38.0547 31.1826 38.1367 30.5214C38.2412 29.947 38.3946 29.3825 38.5951 28.8341L38.7892 28.3031L39.1681 27.496C39.5995 26.577 40.1963 25.7451 40.9287 25.0421L41.912 24.02L42.7577 23.0507L43.1205 22.5742C43.341 22.233 43.4805 21.8459 43.5284 21.4425L43.5309 21.4213V20.8477L43.5243 20.7927C43.4809 20.4311 43.2737 20.1096 42.9624 19.9208C42.7772 19.8084 42.5647 19.749 42.3481 19.749H42.1987C41.974 19.749 41.7515 19.7931 41.5437 19.8787L41.308 19.9759C40.9177 20.1368 40.5657 20.378 40.2748 20.684L39.8207 21.1616L39.3608 21.7915C38.9803 22.3125 38.6413 22.8625 38.3467 23.4365L38.0259 24.0616C37.8906 24.3251 37.7313 24.5755 37.5499 24.8095L37.2663 25.1753C36.7988 25.7784 36.5451 26.5198 36.5451 27.2829C36.5451 27.139 36.5187 26.9963 36.4673 26.8619L36.2665 26.3369C36.05 25.7709 35.9579 25.1648 35.9965 24.56L36.0431 23.8299L36.1524 23.1972C36.3231 22.2086 36.5861 21.238 36.9377 20.2984C37.1525 19.6328 37.4358 18.9914 37.7831 18.3843L37.8226 18.3154L38.1899 17.7751C38.4587 17.3795 38.7937 17.0257 39.1727 16.734C39.4136 16.5487 39.6761 16.3865 39.9499 16.2546C40.3536 16.0601 40.7845 15.9283 41.228 15.8637L41.6256 15.8058C42.0124 15.7495 42.4047 15.7412 42.7936 15.7809C43.5808 15.8615 44.3355 16.1374 44.9891 16.5835L45.2576 16.7669L45.3413 16.8415C45.9241 17.3615 46.3918 17.9976 46.7144 18.709L46.7607 18.8111C46.8606 19.0315 46.9417 19.2599 47.0031 19.494C47.1495 20.0525 47.1815 20.6349 47.0973 21.2061L47.0173 21.7483C46.9605 22.1332 46.8715 22.5126 46.7514 22.8827L46.7371 22.9267C46.5019 23.6513 46.1579 24.336 45.7169 24.9573L45.4247 25.369C45.017 25.9435 44.5541 26.4767 44.0428 26.9612L42.4958 28.4269C42.2519 28.6579 42.0256 28.9067 41.8186 29.1713L41.588 29.4661C41.4582 29.632 41.3456 29.8107 41.252 29.9994L41.1204 30.2645C41.0686 30.3688 41.0329 30.4805 41.0143 30.5955L40.9759 30.8344C40.946 31.0207 40.9999 31.2107 41.1232 31.3535C41.2445 31.494 41.421 31.5748 41.6067 31.5748H41.634H41.762C41.8606 31.5748 41.9578 31.5515 42.0457 31.5067C42.1291 31.4642 42.202 31.4035 42.2588 31.329L42.5918 30.8928L42.9148 30.3818L43.3981 29.5587L44.1834 28.5231L44.903 27.7582C45.413 27.216 45.983 26.7336 46.6021 26.3204L46.7564 26.2174C47.2212 25.9071 47.6523 25.5493 48.0428 25.1496L48.2308 24.9572C48.6056 24.5736 48.9276 24.1417 49.1882 23.6729C49.6666 22.6449 49.8947 21.5183 49.8538 20.3851L49.8375 19.9327L49.7785 19.5891C49.6095 18.6033 49.2848 17.6507 48.8166 16.7669L48.2057 15.902C47.9852 15.5898 47.7378 15.2974 47.4665 15.0281C46.8995 14.4655 46.2348 14.0109 45.5049 13.6866L45.4689 13.6706C45.0839 13.4995 44.6838 13.3646 44.2738 13.2677L44.113 13.2297C43.4675 13.0771 42.8065 13 42.1432 13H41.8354C41.2939 13 40.7532 13.0536 40.2222 13.1597C39.7094 13.2622 39.207 13.4135 38.7229 13.6114C38.0592 13.8828 37.4338 14.2399 36.8628 14.6735L36.3842 15.037C35.9688 15.3525 35.5833 15.7055 35.2324 16.0915L35.1533 16.1786C34.8738 16.4861 34.6216 16.8173 34.3995 17.1686C33.9862 17.822 33.6814 18.538 33.4968 19.2888L33.4325 19.5503C33.323 19.996 33.2483 20.4496 33.2093 20.9069L33.1894 21.1406V21.3191C33.1894 22.0441 33.3324 22.7619 33.6103 23.4316C33.7203 23.6967 33.8508 23.9528 34.0007 24.1976L34.5179 25.0421C34.9209 25.5894 35.218 26.2073 35.3937 26.8639L35.4476 27.0652L35.8236 28.3031L36.1249 29.2448L36.3726 30.3604L36.3948 30.5147C36.5432 31.5492 36.5936 32.5955 36.5451 33.6395V33.7756C36.5451 33.8122 36.5007 33.8306 36.4748 33.8047C36.4694 33.7993 36.4656 33.7925 36.4639 33.7851L36.3726 33.4041L36.252 32.9753L36.1249 32.6193L35.9314 32.07L35.6934 31.5206L35.4602 30.8143L35.3032 30.3604L35.2644 30.2374C34.9809 29.3388 34.6263 28.4642 34.2038 27.6219L33.6493 26.655L32.9437 25.7442C32.7416 25.4832 32.513 25.2439 32.2617 25.0299C31.8776 24.7028 31.4443 24.4383 30.9777 24.2464L30.1268 23.8962L28.7011 23.2525L28.4202 23.1221C28.2757 23.0551 28.1162 23.1803 28.147 23.3366C28.1499 23.3515 28.1511 23.3667 28.1505 23.3818L28.0518 25.9417C28.0175 26.8295 28.1326 27.7167 28.3924 28.5664C28.5455 29.0671 28.7478 29.5515 28.9963 30.0124L29.4079 30.7755C29.8847 31.53 30.4666 32.2127 31.1361 32.803L31.4618 33.0902L33.401 34.615C33.5373 34.7222 33.7247 34.5715 33.6493 34.4154L33.0356 32.7674L32.4826 31.4421L32.2074 30.7358L31.6819 29.4997L31.1095 28.5495C31.0967 28.5283 31.0873 28.5052 31.0817 28.481C31.0291 28.2558 31.2973 28.0964 31.47 28.2501L32.4464 29.1187C32.4705 29.1401 32.493 29.1633 32.5137 29.1881L32.9538 29.7156L33.3825 30.2858C33.7645 30.7938 34.0944 31.339 34.3673 31.913L34.8385 33.0425L34.8526 33.0764C35.0522 33.5555 35.2932 34.0164 35.5727 34.4538C35.8604 34.9041 36.1879 35.3277 36.5512 35.7195L37.2664 36.4908L37.9041 37.1339C38.1633 37.3954 38.4463 37.6321 38.7495 37.8409C39.0688 38.0609 39.4089 38.2489 39.7649 38.4024L40.0447 38.523C40.323 38.643 40.6103 38.7406 40.9041 38.815C41.3886 38.9378 41.8872 38.9965 42.387 38.9897L42.6187 38.9866C43.1369 38.9795 43.653 38.9186 44.1587 38.8048L44.8116 38.6579L45.9321 38.2566L46.9254 37.7933C47.5478 37.4331 48.1085 36.9754 48.5861 36.4377L48.8409 36.1508C49.3842 35.5794 49.8266 34.92 50.1493 34.2006L50.1709 34.1524L50.2903 33.81C50.5639 33.0253 50.78 32.2218 50.9369 31.4057L51 30.7358V30.265V29.5587L50.9644 29.1608C50.9461 28.9555 50.9117 28.752 50.8617 28.552C50.8072 28.3341 50.7343 28.1213 50.6437 27.9157L50.5377 27.6752L50.3021 27.2829C50.1558 27.0598 49.9527 26.8799 49.7137 26.7614L49.6644 26.737C49.5664 26.6885 49.4629 26.6519 49.3562 26.628L49.3047 26.6165C49.2412 26.6024 49.1765 26.5952 49.1115 26.5952H49.0011C48.8967 26.5952 48.7946 26.6264 48.708 26.6847C48.4893 26.832 48.4139 27.1188 48.5319 27.3547Z" stroke="url(#paint0_linear_1148_466)" stroke-width="8" mask="url(#path-1-outside-1_1148_466)"/>
<path d="M4.484 39.266C3.952 39.266 3.534 39.114 3.23 38.81C2.926 38.506 2.774 38.0627 2.774 37.48V13.692C2.774 13.1093 2.926 12.6787 3.23 12.4C3.534 12.096 3.952 11.944 4.484 11.944C5.04133 11.944 5.472 12.096 5.776 12.4C6.08 12.6787 6.232 13.1093 6.232 13.692V24.522H5.738C6.27 23.078 7.13133 21.9887 8.322 21.254C9.538 20.5193 10.9187 20.152 12.464 20.152C13.9587 20.152 15.1873 20.4307 16.15 20.988C17.1127 21.52 17.8347 22.3307 18.316 23.42C18.7973 24.5093 19.038 25.8773 19.038 27.524V37.48C19.038 38.0627 18.886 38.506 18.582 38.81C18.3033 39.114 17.8853 39.266 17.328 39.266C16.7707 39.266 16.34 39.114 16.036 38.81C15.732 38.506 15.58 38.0627 15.58 37.48V27.714C15.58 26.0673 15.2633 24.864 14.63 24.104C13.9967 23.344 12.9833 22.964 11.59 22.964C9.96867 22.964 8.664 23.4707 7.676 24.484C6.71333 25.472 6.232 26.8147 6.232 28.512V37.48C6.232 38.6707 5.64933 39.266 4.484 39.266Z" fill="#98FB98"/>
<path d="M65.664 39.342C64.3973 39.342 63.2447 39.0887 62.206 38.582C61.1927 38.0753 60.3947 37.3913 59.812 36.53C59.2547 35.6687 58.976 34.706 58.976 33.642C58.976 32.274 59.318 31.1973 60.002 30.412C60.686 29.6267 61.8387 29.0693 63.46 28.74C65.0813 28.3853 67.26 28.208 69.996 28.208H71.782V30.412H70.072C68.1213 30.412 66.576 30.5007 65.436 30.678C64.3213 30.8553 63.536 31.172 63.08 31.628C62.624 32.0587 62.396 32.6667 62.396 33.452C62.396 34.44 62.738 35.2507 63.422 35.884C64.1313 36.5173 65.094 36.834 66.31 36.834C67.2727 36.834 68.1213 36.606 68.856 36.15C69.5907 35.6687 70.1733 35.0353 70.604 34.25C71.0347 33.4393 71.25 32.5147 71.25 31.476V27.106C71.25 25.6113 70.946 24.5347 70.338 23.876C69.73 23.192 68.704 22.85 67.26 22.85C66.424 22.85 65.5627 22.964 64.676 23.192C63.7893 23.42 62.8647 23.7747 61.902 24.256C61.522 24.4333 61.1927 24.4967 60.914 24.446C60.6353 24.37 60.4073 24.218 60.23 23.99C60.078 23.7367 59.9893 23.4707 59.964 23.192C59.964 22.888 60.0273 22.5967 60.154 22.318C60.306 22.0393 60.5593 21.8367 60.914 21.71C62.0287 21.1527 63.1307 20.76 64.22 20.532C65.3347 20.2787 66.3733 20.152 67.336 20.152C68.9827 20.152 70.338 20.418 71.402 20.95C72.466 21.4567 73.264 22.2547 73.796 23.344C74.328 24.408 74.594 25.776 74.594 27.448V37.48C74.594 38.0627 74.4547 38.506 74.176 38.81C73.8973 39.114 73.492 39.266 72.96 39.266C72.4533 39.266 72.048 39.114 71.744 38.81C71.4653 38.506 71.326 38.0627 71.326 37.48V34.782H71.668C71.4653 35.7193 71.0853 36.53 70.528 37.214C69.9707 37.898 69.274 38.43 68.438 38.81C67.6273 39.1647 66.7027 39.342 65.664 39.342ZM85.8497 39.342C83.9497 39.342 82.5057 38.7847 81.5177 37.67C80.5297 36.53 80.0357 34.896 80.0357 32.768V13.692C80.0357 13.1093 80.1877 12.6787 80.4917 12.4C80.7957 12.096 81.2137 11.944 81.7457 11.944C82.3031 11.944 82.7337 12.096 83.0377 12.4C83.3417 12.6787 83.4937 13.1093 83.4937 13.692V32.502C83.4937 33.8193 83.7597 34.8073 84.2917 35.466C84.8491 36.0993 85.6344 36.416 86.6477 36.416C86.8757 36.416 87.0784 36.416 87.2557 36.416C87.4331 36.3907 87.6104 36.3653 87.7877 36.34C88.0664 36.3147 88.2691 36.3907 88.3957 36.568C88.5224 36.7453 88.5857 37.1 88.5857 37.632C88.5857 38.1133 88.4717 38.4933 88.2437 38.772C88.0411 39.0253 87.6991 39.19 87.2177 39.266C86.9897 39.2913 86.7617 39.304 86.5337 39.304C86.3057 39.3293 86.0777 39.342 85.8497 39.342ZM93.1754 39.19C92.6434 39.19 92.2254 39.0253 91.9214 38.696C91.6174 38.3667 91.4654 37.9107 91.4654 37.328V22.166C91.4654 21.558 91.6174 21.102 91.9214 20.798C92.2254 20.4687 92.6434 20.304 93.1754 20.304C93.7327 20.304 94.1634 20.4687 94.4674 20.798C94.7714 21.102 94.9234 21.558 94.9234 22.166V37.328C94.9234 37.9107 94.7714 38.3667 94.4674 38.696C94.1887 39.0253 93.7581 39.19 93.1754 39.19ZM93.1754 16.2C92.4914 16.2 91.9467 16.0227 91.5414 15.668C91.1614 15.288 90.9714 14.794 90.9714 14.186C90.9714 13.5273 91.1614 13.0333 91.5414 12.704C91.9467 12.3493 92.4914 12.172 93.1754 12.172C93.9101 12.172 94.4547 12.3493 94.8094 12.704C95.1894 13.0333 95.3794 13.5273 95.3794 14.186C95.3794 14.794 95.1894 15.288 94.8094 15.668C94.4547 16.0227 93.9101 16.2 93.1754 16.2ZM102.193 39.266C101.661 39.266 101.243 39.114 100.939 38.81C100.635 38.506 100.483 38.0627 100.483 37.48V21.976C100.483 21.3933 100.635 20.9627 100.939 20.684C101.243 20.38 101.661 20.228 102.193 20.228C102.725 20.228 103.13 20.38 103.409 20.684C103.713 20.9627 103.865 21.3933 103.865 21.976V25.092L103.447 24.522C103.979 23.078 104.84 21.9887 106.031 21.254C107.247 20.5193 108.628 20.152 110.173 20.152C111.668 20.152 112.896 20.418 113.859 20.95C114.822 21.482 115.544 22.2927 116.025 23.382C116.506 24.4713 116.747 25.852 116.747 27.524V37.48C116.747 38.0627 116.595 38.506 116.291 38.81C116.012 39.114 115.594 39.266 115.037 39.266C114.48 39.266 114.049 39.114 113.745 38.81C113.441 38.506 113.289 38.0627 113.289 37.48V27.714C113.289 26.0673 112.972 24.864 112.339 24.104C111.706 23.344 110.692 22.964 109.299 22.964C107.678 22.964 106.373 23.4707 105.385 24.484C104.422 25.472 103.941 26.8147 103.941 28.512V37.48C103.941 38.6707 103.358 39.266 102.193 39.266ZM130.551 46.182C129.183 46.182 127.853 46.03 126.561 45.726C125.294 45.422 124.142 44.9533 123.103 44.32C122.774 44.1173 122.546 43.8767 122.419 43.598C122.318 43.3447 122.292 43.0787 122.343 42.8C122.419 42.5213 122.546 42.268 122.723 42.04C122.926 41.8373 123.154 41.698 123.407 41.622C123.686 41.5713 123.964 41.6347 124.243 41.812C125.358 42.4453 126.422 42.876 127.435 43.104C128.448 43.332 129.411 43.446 130.323 43.446C132.122 43.446 133.464 42.9773 134.351 42.04C135.263 41.128 135.719 39.7853 135.719 38.012V33.908H136.061C135.706 35.3267 134.908 36.454 133.667 37.29C132.451 38.126 131.032 38.544 129.411 38.544C127.739 38.544 126.282 38.164 125.041 37.404C123.8 36.6187 122.837 35.542 122.153 34.174C121.469 32.7807 121.127 31.172 121.127 29.348C121.127 27.9547 121.317 26.7007 121.697 25.586C122.102 24.446 122.66 23.4833 123.369 22.698C124.104 21.8873 124.978 21.2667 125.991 20.836C127.004 20.38 128.144 20.152 129.411 20.152C131.058 20.152 132.489 20.57 133.705 21.406C134.921 22.242 135.706 23.3693 136.061 24.788L135.643 25.32V21.976C135.643 21.3933 135.795 20.9627 136.099 20.684C136.403 20.38 136.834 20.228 137.391 20.228C137.923 20.228 138.341 20.38 138.645 20.684C138.949 20.9627 139.101 21.3933 139.101 21.976V37.556C139.101 40.4187 138.366 42.572 136.897 44.016C135.453 45.46 133.338 46.182 130.551 46.182ZM130.171 35.808C131.311 35.808 132.286 35.5547 133.097 35.048C133.933 34.516 134.566 33.7687 134.997 32.806C135.453 31.818 135.681 30.6653 135.681 29.348C135.681 27.3467 135.187 25.776 134.199 24.636C133.211 23.4707 131.868 22.888 130.171 22.888C129.031 22.888 128.043 23.154 127.207 23.686C126.396 24.1927 125.763 24.9273 125.307 25.89C124.851 26.8527 124.623 28.0053 124.623 29.348C124.623 31.324 125.117 32.8947 126.105 34.06C127.118 35.2253 128.474 35.808 130.171 35.808ZM146.353 39.19C145.821 39.19 145.403 39.0253 145.099 38.696C144.795 38.3667 144.643 37.9107 144.643 37.328V22.166C144.643 21.558 144.795 21.102 145.099 20.798C145.403 20.4687 145.821 20.304 146.353 20.304C146.91 20.304 147.341 20.4687 147.645 20.798C147.949 21.102 148.101 21.558 148.101 22.166V37.328C148.101 37.9107 147.949 38.3667 147.645 38.696C147.366 39.0253 146.936 39.19 146.353 39.19ZM146.353 16.2C145.669 16.2 145.124 16.0227 144.719 15.668C144.339 15.288 144.149 14.794 144.149 14.186C144.149 13.5273 144.339 13.0333 144.719 12.704C145.124 12.3493 145.669 12.172 146.353 12.172C147.088 12.172 147.632 12.3493 147.987 12.704C148.367 13.0333 148.557 13.5273 148.557 14.186C148.557 14.794 148.367 15.288 147.987 15.668C147.632 16.0227 147.088 16.2 146.353 16.2ZM155.371 39.266C154.839 39.266 154.421 39.114 154.117 38.81C153.813 38.506 153.661 38.0627 153.661 37.48V21.976C153.661 21.3933 153.813 20.9627 154.117 20.684C154.421 20.38 154.839 20.228 155.371 20.228C155.903 20.228 156.308 20.38 156.587 20.684C156.891 20.9627 157.043 21.3933 157.043 21.976V25.092L156.625 24.522C157.157 23.078 158.018 21.9887 159.209 21.254C160.425 20.5193 161.805 20.152 163.351 20.152C164.845 20.152 166.074 20.418 167.037 20.95C167.999 21.482 168.721 22.2927 169.203 23.382C169.684 24.4713 169.925 25.852 169.925 27.524V37.48C169.925 38.0627 169.773 38.506 169.469 38.81C169.19 39.114 168.772 39.266 168.215 39.266C167.657 39.266 167.227 39.114 166.923 38.81C166.619 38.506 166.467 38.0627 166.467 37.48V27.714C166.467 26.0673 166.15 24.864 165.517 24.104C164.883 23.344 163.87 22.964 162.477 22.964C160.855 22.964 159.551 23.4707 158.563 24.484C157.6 25.472 157.119 26.8147 157.119 28.512V37.48C157.119 38.6707 156.536 39.266 155.371 39.266Z" fill="#B5B6EE"/>
<defs>
<linearGradient id="paint0_linear_1148_466" x1="54" y1="26" x2="23" y2="26" gradientUnits="userSpaceOnUse">
<stop stop-color="#B5B6EE"/>
<stop offset="1" stop-color="#98FB98"/>
</linearGradient>
</defs>
</svg>
