<svg width="35" height="38" viewBox="0 0 35 38" fill="none" xmlns="http://www.w3.org/2000/svg">
<mask id="path-1-outside-1_1556_983" maskUnits="userSpaceOnUse" x="0" y="0" width="35" height="38" fill="black">
<rect fill="white" width="35" height="38"/>
<path d="M28.8939 20.6787L28.9418 20.7721C29.4714 21.5391 29.8653 22.3913 30.1063 23.2917L30.13 23.3799L30.3127 24.758L30.3223 24.9526C30.3333 25.1716 30.0339 25.2447 29.9426 25.0453C29.9355 25.0298 29.9264 25.0152 29.9156 25.002L29.8174 24.8822C29.7497 24.7997 29.6918 24.7097 29.6446 24.614L29.3668 24.0497C29.0848 23.4772 28.7244 22.9468 28.2958 22.4739L28.2416 22.4141L28.1337 22.2723C27.8926 21.9555 27.4716 21.8353 27.0996 21.9772L27.0219 22.0068C26.856 22.07 26.7209 22.1948 26.6446 22.355C26.6006 22.4476 26.5777 22.5489 26.5777 22.6515V22.7C26.5777 22.8908 26.638 23.0768 26.75 23.2312L26.9278 23.4765L27.5532 24.2492L27.8547 24.7206C27.9824 24.9204 28.0806 25.1377 28.1461 25.3656C28.2094 25.5861 28.2416 25.8144 28.2416 26.0439V26.5093C28.2416 27.299 27.9835 28.0671 27.5068 28.6966C27.3371 28.9206 27.142 29.1241 26.9253 29.303L26.5122 29.6441C26.3452 29.782 26.1677 29.9068 25.9815 30.0173L25.6627 30.2064C25.6277 30.2272 25.5906 30.2443 25.5521 30.2575L25.4149 30.3045C25.2054 30.3763 24.9755 30.2786 24.8819 30.078C24.8164 29.9377 24.8308 29.7731 24.9196 29.6463L25.0466 29.4649L25.0536 29.4517C25.4229 28.7554 25.6972 28.0127 25.8693 27.2434L26.1103 26.0351C26.1541 25.8159 26.1277 25.5886 26.035 25.3853L26.0242 25.3617C25.9244 25.1426 25.7485 24.9672 25.5291 24.8679L25.4912 24.8507C25.3571 24.79 25.2093 24.7656 25.0627 24.78C24.757 24.8101 24.4921 25.0046 24.3719 25.2873L24.2513 25.5709C24.2154 25.6554 24.1881 25.7434 24.1699 25.8334L24.0875 26.2414C24.0186 26.582 23.9173 26.9154 23.7851 27.2368L23.7473 27.3287C23.5331 27.8492 23.2521 28.3396 22.9114 28.7876L22.4766 29.3595C22.2285 29.6857 21.9362 29.9759 21.608 30.2215C21.1672 30.5513 20.6687 30.7957 20.138 30.9421L20.0387 30.9695L19.9051 30.9901C19.4109 31.0663 18.9052 30.9961 18.4505 30.7883C18.0756 30.6169 17.7476 30.3575 17.4944 30.0322L16.9692 29.3574C16.5788 28.7222 16.2503 28.0511 15.9881 27.3531L15.9791 27.3291L15.9037 27.0025C15.7193 26.2035 15.6778 25.3783 15.7811 24.5649C15.9128 23.8579 16.1059 23.1638 16.3582 22.4903L16.6038 21.8345L17.0747 20.8554C17.6231 19.7151 18.3781 18.6862 19.3014 17.821L20.5412 16.563L21.6076 15.3701L22.0649 14.7837C22.3428 14.3639 22.5191 13.8853 22.5799 13.3856L22.5824 13.3647V12.6587L22.5766 12.6113C22.5204 12.154 22.2552 11.7485 21.8587 11.5138C21.6295 11.3781 21.3681 11.3065 21.1017 11.3065H20.9023C20.6191 11.3065 20.3386 11.3608 20.0758 11.4665L19.7845 11.5838C19.2891 11.7831 18.8408 12.0836 18.4682 12.4662L17.9044 13.0451L17.3223 13.8232C16.8441 14.4625 16.4172 15.1386 16.0456 15.8453L15.6405 16.6158C15.4705 16.939 15.2707 17.2457 15.0435 17.5317L14.6752 17.9955C14.0918 18.7302 13.7742 19.6407 13.7742 20.5789C13.7742 20.4019 13.7411 20.2264 13.6765 20.0616L13.4231 19.4149C13.1502 18.7184 13.034 17.9704 13.0828 17.224L13.1413 16.3291L13.2783 15.5547C13.4941 14.3351 13.8259 13.139 14.2693 11.9826C14.5401 11.1635 14.8965 10.3753 15.3328 9.63108L15.385 9.54206L15.8417 8.88613C16.1849 8.39325 16.6057 7.95744 17.086 7.5968C17.3927 7.36646 17.7229 7.16757 18.0701 7.00431C18.5773 6.76573 19.1174 6.60434 19.6723 6.52549L20.1827 6.45297C20.6688 6.3839 21.1614 6.37364 21.65 6.42243C22.645 6.52178 23.6004 6.86369 24.4325 7.4182L24.7596 7.63619L24.8792 7.74031C25.6046 8.37213 26.189 9.14954 26.5943 10.022L26.656 10.1547C26.7812 10.4242 26.8829 10.704 26.96 10.991C27.1448 11.6791 27.1852 12.3981 27.0787 13.1026L26.9781 13.7683C26.9066 14.2412 26.7948 14.7071 26.6439 15.1609L26.6239 15.221C26.3281 16.1104 25.897 16.9489 25.3458 17.707L24.965 18.2306C24.4544 18.9328 23.8763 19.5833 23.2389 20.1728L21.2735 21.9905C20.9686 22.2725 20.6851 22.5768 20.4254 22.9008L20.1302 23.2691C19.9682 23.4712 19.8274 23.6895 19.71 23.9204L19.5427 24.2495C19.4777 24.3773 19.4327 24.5144 19.4094 24.6559L19.3626 24.9399C19.3239 25.1751 19.3931 25.4153 19.551 25.5939C19.7015 25.7639 19.9176 25.8613 20.1446 25.8613H20.1908H20.3546C20.4773 25.8613 20.5984 25.8329 20.7084 25.7782C20.8145 25.7254 20.9075 25.6495 20.9806 25.5562L21.3983 25.0219L21.8056 24.3929L22.415 23.3799L23.4052 22.1053L24.307 21.1695C24.9537 20.4985 25.6743 19.9029 26.4551 19.3941L26.6593 19.2611C27.2387 18.8835 27.7774 18.4468 28.2666 17.9581L28.5128 17.7122C28.9825 17.243 29.387 16.7128 29.7156 16.1359C30.3184 14.8715 30.6062 13.4799 30.5545 12.0802L30.5342 11.5325L30.4614 11.1182C30.2473 9.89957 29.8372 8.72366 29.247 7.63619L28.4821 6.57915C28.2005 6.18993 27.8853 5.82612 27.5402 5.49186C26.8282 4.80216 25.9975 4.24671 25.088 3.85224L25.021 3.82318C24.5389 3.61404 24.0386 3.44936 23.5266 3.33118L23.3141 3.28216C22.5016 3.09466 21.6705 3 20.8366 3H20.442C19.761 3 19.0764 3.06665 18.408 3.19706C17.7658 3.32234 17.1319 3.5084 16.5243 3.7509C15.6846 4.08598 14.8918 4.52824 14.1655 5.06666L13.5647 5.51206C13.0454 5.89707 12.5624 6.32886 12.1219 6.802L12.0137 6.91824C11.6651 7.29264 11.3499 7.69681 11.0718 8.12613C10.549 8.93314 10.1624 9.82062 9.92753 10.7531L9.85062 11.0584C9.71187 11.6093 9.61732 12.1703 9.56788 12.7362L9.54315 13.0192V13.2308C9.54315 14.1281 9.72406 15.0161 10.0751 15.8418C10.2129 16.1661 10.3763 16.479 10.5636 16.7776L11.2182 17.821C11.7263 18.4944 12.1018 19.2582 12.3248 20.0718L12.3904 20.311L12.8645 21.8345L13.2444 22.9936L13.5568 24.3666L13.5848 24.5574C13.7719 25.8299 13.8354 27.1177 13.7742 28.4025V28.5688C13.7742 28.6148 13.7188 28.6382 13.6859 28.606C13.6789 28.5992 13.674 28.5906 13.6717 28.5812L13.5568 28.1127L13.4047 27.5849L13.2444 27.1468L13.0005 26.4707L12.7004 25.7946L12.4064 24.9253L12.2083 24.3666L12.1609 24.2198C11.8025 23.1108 11.3548 22.0328 10.8221 20.9962L10.123 19.8062L9.23812 18.6911C8.9801 18.366 8.68918 18.0684 8.36998 17.8031C7.88792 17.4024 7.34627 17.0794 6.76459 16.8457L5.68162 16.4107L3.88402 15.6184L3.52081 15.4539C3.34182 15.3729 3.14626 15.5286 3.18519 15.7212C3.189 15.74 3.19054 15.7592 3.18978 15.7784L3.06555 18.9208C3.02217 20.018 3.16776 21.1145 3.49595 22.1624C3.68817 22.7762 3.9417 23.369 4.2527 23.9319L4.77515 24.8776C5.37638 25.8061 6.10728 26.6439 6.94568 27.3656L7.36484 27.7264L9.81726 29.6087C9.98793 29.7397 10.2185 29.5502 10.123 29.3574L9.34924 27.3291L8.65203 25.698L8.30493 24.8287L7.81678 23.7077C7.70071 23.4411 7.56582 23.1832 7.41312 22.9358L6.92117 22.1387C6.90469 22.112 6.89257 22.0829 6.88528 22.0523C6.81863 21.7733 7.14908 21.5729 7.36568 21.761L8.60585 22.8379C8.63659 22.8646 8.66532 22.8936 8.69177 22.9245L9.24612 23.5731L9.78971 24.2788C10.2692 24.9014 10.6843 25.5711 11.0284 26.2775L11.6225 27.6677L11.6375 27.7028C11.891 28.2969 12.1965 28.8674 12.5502 29.4079C12.9117 29.9599 13.3221 30.4783 13.7765 30.9567L14.6837 31.9118L15.4834 32.6991C15.8132 33.0237 16.1723 33.3169 16.5563 33.5751C16.9572 33.8447 17.3833 34.0749 17.8286 34.2622L18.1842 34.4118C18.5368 34.5602 18.9005 34.6809 19.2719 34.7727C19.8819 34.9236 20.5088 34.9958 21.1373 34.9874L21.4322 34.9835C22.0857 34.9748 22.7367 34.8998 23.375 34.7596L24.1973 34.579L25.61 34.0851L26.8625 33.5149C27.6473 33.0715 28.3565 32.5057 28.9631 31.8389L29.2777 31.4933C29.9626 30.7901 30.5221 29.975 30.932 29.083L30.9546 29.0338L31.1061 28.6097C31.4505 27.6458 31.7227 26.6575 31.9204 25.6532L32 24.8287V24.2492V23.3799L31.9553 22.8915C31.9321 22.638 31.8887 22.3868 31.8255 22.1402C31.7569 21.8725 31.6652 21.6113 31.5515 21.3595L31.4171 21.0618L31.1201 20.5789C30.9356 20.3044 30.6814 20.0838 30.3837 19.9398L30.3171 19.9076C30.1928 19.8475 30.0618 19.8023 29.9269 19.7729L29.8622 19.7588C29.7824 19.7413 29.7009 19.7326 29.6191 19.7326H29.4721C29.3452 19.7326 29.2212 19.7697 29.1152 19.8394C28.8379 20.0216 28.7425 20.3835 28.8939 20.6787Z"/>
</mask>
<path d="M28.8939 20.6787L28.9418 20.7721C29.4714 21.5391 29.8653 22.3913 30.1063 23.2917L30.13 23.3799L30.3127 24.758L30.3223 24.9526C30.3333 25.1716 30.0339 25.2447 29.9426 25.0453C29.9355 25.0298 29.9264 25.0152 29.9156 25.002L29.8174 24.8822C29.7497 24.7997 29.6918 24.7097 29.6446 24.614L29.3668 24.0497C29.0848 23.4772 28.7244 22.9468 28.2958 22.4739L28.2416 22.4141L28.1337 22.2723C27.8926 21.9555 27.4716 21.8353 27.0996 21.9772L27.0219 22.0068C26.856 22.07 26.7209 22.1948 26.6446 22.355C26.6006 22.4476 26.5777 22.5489 26.5777 22.6515V22.7C26.5777 22.8908 26.638 23.0768 26.75 23.2312L26.9278 23.4765L27.5532 24.2492L27.8547 24.7206C27.9824 24.9204 28.0806 25.1377 28.1461 25.3656C28.2094 25.5861 28.2416 25.8144 28.2416 26.0439V26.5093C28.2416 27.299 27.9835 28.0671 27.5068 28.6966C27.3371 28.9206 27.142 29.1241 26.9253 29.303L26.5122 29.6441C26.3452 29.782 26.1677 29.9068 25.9815 30.0173L25.6627 30.2064C25.6277 30.2272 25.5906 30.2443 25.5521 30.2575L25.4149 30.3045C25.2054 30.3763 24.9755 30.2786 24.8819 30.078C24.8164 29.9377 24.8308 29.7731 24.9196 29.6463L25.0466 29.4649L25.0536 29.4517C25.4229 28.7554 25.6972 28.0127 25.8693 27.2434L26.1103 26.0351C26.1541 25.8159 26.1277 25.5886 26.035 25.3853L26.0242 25.3617C25.9244 25.1426 25.7485 24.9672 25.5291 24.8679L25.4912 24.8507C25.3571 24.79 25.2093 24.7656 25.0627 24.78C24.757 24.8101 24.4921 25.0046 24.3719 25.2873L24.2513 25.5709C24.2154 25.6554 24.1881 25.7434 24.1699 25.8334L24.0875 26.2414C24.0186 26.582 23.9173 26.9154 23.7851 27.2368L23.7473 27.3287C23.5331 27.8492 23.2521 28.3396 22.9114 28.7876L22.4766 29.3595C22.2285 29.6857 21.9362 29.9759 21.608 30.2215C21.1672 30.5513 20.6687 30.7957 20.138 30.9421L20.0387 30.9695L19.9051 30.9901C19.4109 31.0663 18.9052 30.9961 18.4505 30.7883C18.0756 30.6169 17.7476 30.3575 17.4944 30.0322L16.9692 29.3574C16.5788 28.7222 16.2503 28.0511 15.9881 27.3531L15.9791 27.3291L15.9037 27.0025C15.7193 26.2035 15.6778 25.3783 15.7811 24.5649C15.9128 23.8579 16.1059 23.1638 16.3582 22.4903L16.6038 21.8345L17.0747 20.8554C17.6231 19.7151 18.3781 18.6862 19.3014 17.821L20.5412 16.563L21.6076 15.3701L22.0649 14.7837C22.3428 14.3639 22.5191 13.8853 22.5799 13.3856L22.5824 13.3647V12.6587L22.5766 12.6113C22.5204 12.154 22.2552 11.7485 21.8587 11.5138C21.6295 11.3781 21.3681 11.3065 21.1017 11.3065H20.9023C20.6191 11.3065 20.3386 11.3608 20.0758 11.4665L19.7845 11.5838C19.2891 11.7831 18.8408 12.0836 18.4682 12.4662L17.9044 13.0451L17.3223 13.8232C16.8441 14.4625 16.4172 15.1386 16.0456 15.8453L15.6405 16.6158C15.4705 16.939 15.2707 17.2457 15.0435 17.5317L14.6752 17.9955C14.0918 18.7302 13.7742 19.6407 13.7742 20.5789C13.7742 20.4019 13.7411 20.2264 13.6765 20.0616L13.4231 19.4149C13.1502 18.7184 13.034 17.9704 13.0828 17.224L13.1413 16.3291L13.2783 15.5547C13.4941 14.3351 13.8259 13.139 14.2693 11.9826C14.5401 11.1635 14.8965 10.3753 15.3328 9.63108L15.385 9.54206L15.8417 8.88613C16.1849 8.39325 16.6057 7.95744 17.086 7.5968C17.3927 7.36646 17.7229 7.16757 18.0701 7.00431C18.5773 6.76573 19.1174 6.60434 19.6723 6.52549L20.1827 6.45297C20.6688 6.3839 21.1614 6.37364 21.65 6.42243C22.645 6.52178 23.6004 6.86369 24.4325 7.4182L24.7596 7.63619L24.8792 7.74031C25.6046 8.37213 26.189 9.14954 26.5943 10.022L26.656 10.1547C26.7812 10.4242 26.8829 10.704 26.96 10.991C27.1448 11.6791 27.1852 12.3981 27.0787 13.1026L26.9781 13.7683C26.9066 14.2412 26.7948 14.7071 26.6439 15.1609L26.6239 15.221C26.3281 16.1104 25.897 16.9489 25.3458 17.707L24.965 18.2306C24.4544 18.9328 23.8763 19.5833 23.2389 20.1728L21.2735 21.9905C20.9686 22.2725 20.6851 22.5768 20.4254 22.9008L20.1302 23.2691C19.9682 23.4712 19.8274 23.6895 19.71 23.9204L19.5427 24.2495C19.4777 24.3773 19.4327 24.5144 19.4094 24.6559L19.3626 24.9399C19.3239 25.1751 19.3931 25.4153 19.551 25.5939C19.7015 25.7639 19.9176 25.8613 20.1446 25.8613H20.1908H20.3546C20.4773 25.8613 20.5984 25.8329 20.7084 25.7782C20.8145 25.7254 20.9075 25.6495 20.9806 25.5562L21.3983 25.0219L21.8056 24.3929L22.415 23.3799L23.4052 22.1053L24.307 21.1695C24.9537 20.4985 25.6743 19.9029 26.4551 19.3941L26.6593 19.2611C27.2387 18.8835 27.7774 18.4468 28.2666 17.9581L28.5128 17.7122C28.9825 17.243 29.387 16.7128 29.7156 16.1359C30.3184 14.8715 30.6062 13.4799 30.5545 12.0802L30.5342 11.5325L30.4614 11.1182C30.2473 9.89957 29.8372 8.72366 29.247 7.63619L28.4821 6.57915C28.2005 6.18993 27.8853 5.82612 27.5402 5.49186C26.8282 4.80216 25.9975 4.24671 25.088 3.85224L25.021 3.82318C24.5389 3.61404 24.0386 3.44936 23.5266 3.33118L23.3141 3.28216C22.5016 3.09466 21.6705 3 20.8366 3H20.442C19.761 3 19.0764 3.06665 18.408 3.19706C17.7658 3.32234 17.1319 3.5084 16.5243 3.7509C15.6846 4.08598 14.8918 4.52824 14.1655 5.06666L13.5647 5.51206C13.0454 5.89707 12.5624 6.32886 12.1219 6.802L12.0137 6.91824C11.6651 7.29264 11.3499 7.69681 11.0718 8.12613C10.549 8.93314 10.1624 9.82062 9.92753 10.7531L9.85062 11.0584C9.71187 11.6093 9.61732 12.1703 9.56788 12.7362L9.54315 13.0192V13.2308C9.54315 14.1281 9.72406 15.0161 10.0751 15.8418C10.2129 16.1661 10.3763 16.479 10.5636 16.7776L11.2182 17.821C11.7263 18.4944 12.1018 19.2582 12.3248 20.0718L12.3904 20.311L12.8645 21.8345L13.2444 22.9936L13.5568 24.3666L13.5848 24.5574C13.7719 25.8299 13.8354 27.1177 13.7742 28.4025V28.5688C13.7742 28.6148 13.7188 28.6382 13.6859 28.606C13.6789 28.5992 13.674 28.5906 13.6717 28.5812L13.5568 28.1127L13.4047 27.5849L13.2444 27.1468L13.0005 26.4707L12.7004 25.7946L12.4064 24.9253L12.2083 24.3666L12.1609 24.2198C11.8025 23.1108 11.3548 22.0328 10.8221 20.9962L10.123 19.8062L9.23812 18.6911C8.9801 18.366 8.68918 18.0684 8.36998 17.8031C7.88792 17.4024 7.34627 17.0794 6.76459 16.8457L5.68162 16.4107L3.88402 15.6184L3.52081 15.4539C3.34182 15.3729 3.14626 15.5286 3.18519 15.7212C3.189 15.74 3.19054 15.7592 3.18978 15.7784L3.06555 18.9208C3.02217 20.018 3.16776 21.1145 3.49595 22.1624C3.68817 22.7762 3.9417 23.369 4.2527 23.9319L4.77515 24.8776C5.37638 25.8061 6.10728 26.6439 6.94568 27.3656L7.36484 27.7264L9.81726 29.6087C9.98793 29.7397 10.2185 29.5502 10.123 29.3574L9.34924 27.3291L8.65203 25.698L8.30493 24.8287L7.81678 23.7077C7.70071 23.4411 7.56582 23.1832 7.41312 22.9358L6.92117 22.1387C6.90469 22.112 6.89257 22.0829 6.88528 22.0523C6.81863 21.7733 7.14908 21.5729 7.36568 21.761L8.60585 22.8379C8.63659 22.8646 8.66532 22.8936 8.69177 22.9245L9.24612 23.5731L9.78971 24.2788C10.2692 24.9014 10.6843 25.5711 11.0284 26.2775L11.6225 27.6677L11.6375 27.7028C11.891 28.2969 12.1965 28.8674 12.5502 29.4079C12.9117 29.9599 13.3221 30.4783 13.7765 30.9567L14.6837 31.9118L15.4834 32.6991C15.8132 33.0237 16.1723 33.3169 16.5563 33.5751C16.9572 33.8447 17.3833 34.0749 17.8286 34.2622L18.1842 34.4118C18.5368 34.5602 18.9005 34.6809 19.2719 34.7727C19.8819 34.9236 20.5088 34.9958 21.1373 34.9874L21.4322 34.9835C22.0857 34.9748 22.7367 34.8998 23.375 34.7596L24.1973 34.579L25.61 34.0851L26.8625 33.5149C27.6473 33.0715 28.3565 32.5057 28.9631 31.8389L29.2777 31.4933C29.9626 30.7901 30.5221 29.975 30.932 29.083L30.9546 29.0338L31.1061 28.6097C31.4505 27.6458 31.7227 26.6575 31.9204 25.6532L32 24.8287V24.2492V23.3799L31.9553 22.8915C31.9321 22.638 31.8887 22.3868 31.8255 22.1402C31.7569 21.8725 31.6652 21.6113 31.5515 21.3595L31.4171 21.0618L31.1201 20.5789C30.9356 20.3044 30.6814 20.0838 30.3837 19.9398L30.3171 19.9076C30.1928 19.8475 30.0618 19.8023 29.9269 19.7729L29.8622 19.7588C29.7824 19.7413 29.7009 19.7326 29.6191 19.7326H29.4721C29.3452 19.7326 29.2212 19.7697 29.1152 19.8394C28.8379 20.0216 28.7425 20.3835 28.8939 20.6787Z" stroke="url(#paint0_linear_1556_983)" stroke-width="6" mask="url(#path-1-outside-1_1556_983)"/>
<defs>
<linearGradient id="paint0_linear_1556_983" x1="35.7826" y1="19" x2="-3.30435" y2="19" gradientUnits="userSpaceOnUse">
<stop stop-color="#B5B6EE"/>
<stop offset="1" stop-color="#98FB98"/>
</linearGradient>
</defs>
</svg>
