<svg width="50" height="53" viewBox="0 0 50 53" fill="none" xmlns="http://www.w3.org/2000/svg">
<rect x="3" y="4" width="46" height="46" rx="23" fill="white"/>
<mask id="path-2-outside-1_563_135" maskUnits="userSpaceOnUse" x="0.840088" y="0" width="49" height="53" fill="black">
<rect fill="white" x="0.840088" width="49" height="53"/>
<path d="M40.9883 28.4042L41.0512 28.5255C41.7904 29.5838 42.3409 30.7621 42.6783 32.0081L42.7098 32.1243L42.9648 34.0261L42.9782 34.2924C42.9936 34.5975 42.5769 34.7003 42.4485 34.4231C42.4384 34.4013 42.4256 34.3809 42.4103 34.3624L42.2734 34.1974C42.179 34.0836 42.098 33.9592 42.0321 33.8269L41.6443 33.0484C41.2509 32.2585 40.7487 31.5277 40.1524 30.8772L40.0738 30.7914L39.9248 30.5978C39.5867 30.1585 39.0012 29.992 38.4825 30.1875L38.367 30.231C38.1382 30.3173 37.9515 30.4883 37.8454 30.7086C37.7835 30.8372 37.7513 30.9782 37.7513 31.121V31.1862C37.7513 31.4493 37.8352 31.7055 37.9908 31.9177L38.2401 32.2576L39.113 33.3239L39.5349 33.9762C39.7125 34.2508 39.849 34.5498 39.9403 34.8637C40.0289 35.1686 40.0738 35.4844 40.0738 35.8018V36.432C40.0738 37.5283 39.7125 38.594 39.0459 39.4643C38.8106 39.7714 38.5403 40.0502 38.2406 40.2948L37.6611 40.7679C37.4271 40.9588 37.1788 41.1315 36.9183 41.2843L36.4742 41.5447C36.4252 41.5735 36.3735 41.5971 36.3197 41.6153L36.1202 41.683C35.8318 41.7807 35.5159 41.6466 35.3859 41.3713C35.2936 41.1757 35.3138 40.9456 35.4388 40.7691L35.6141 40.5216L35.6254 40.5005C36.1398 39.5415 36.5223 38.5174 36.7625 37.4559L37.0982 35.7919C37.1597 35.4874 37.1227 35.1712 36.9926 34.8891L36.9813 34.8648C36.8403 34.5588 36.593 34.3144 36.2855 34.1768L36.2338 34.1536C36.0471 34.07 35.8418 34.0365 35.6382 34.0563C35.2102 34.0978 34.8389 34.369 34.669 34.764L34.5048 35.1459C34.4541 35.2639 34.4156 35.3866 34.3899 35.5124L34.2753 36.073C34.1792 36.5432 34.0379 37.003 33.8535 37.446L33.7997 37.5753C33.5012 38.2924 33.1102 38.9674 32.6367 39.5831L32.0305 40.3712C31.6817 40.8247 31.2715 41.2274 30.8115 41.5676C30.198 42.0215 29.5055 42.3574 28.7693 42.5582L28.6237 42.5979L28.4315 42.6272C27.7451 42.7319 27.0431 42.6354 26.4104 42.3494C25.8847 42.1118 25.4239 41.7511 25.067 41.2978L24.3392 40.3732C23.7943 39.4967 23.3353 38.5696 22.9688 37.6048L22.9571 37.5741L22.8517 37.1228C22.5944 36.0209 22.5365 34.8818 22.6807 33.7595C22.8646 32.7839 23.134 31.8264 23.4857 30.8981L23.8291 29.9917L24.4818 28.6499C25.2503 27.0701 26.3058 25.6469 27.5945 24.453L29.3252 22.717L30.8137 21.0708L31.4521 20.2614C31.8399 19.6824 32.0863 19.0203 32.1713 18.3286L32.1744 18.3033V17.3291L32.168 17.2772C32.0886 16.6378 31.7158 16.0718 31.1597 15.7464C30.8426 15.5608 30.4819 15.463 30.1145 15.463H29.829C29.4338 15.463 29.0422 15.538 28.675 15.6841L28.2721 15.8444C27.5784 16.1203 26.9497 16.5373 26.4259 17.0691L25.6446 17.8622L24.8306 18.938C24.164 19.8189 23.5685 20.7514 23.0498 21.7268L22.484 22.7908C22.2471 23.2362 21.9688 23.6584 21.6529 24.0517L21.1315 24.7008C20.3212 25.7096 19.8794 26.9649 19.8794 28.2589C19.8794 28.0146 19.8332 27.7726 19.7432 27.5455L19.3893 26.6528C19.0084 25.6918 18.8462 24.658 18.9144 23.6266L18.996 22.3941L19.1867 21.3283C19.4882 19.6435 19.9516 17.9918 20.5705 16.396C20.9484 15.2657 21.4455 14.1788 22.0533 13.1537L22.1278 13.028L22.7612 12.1288C23.243 11.4447 23.831 10.8419 24.5028 10.3431C24.9312 10.025 25.3921 9.75087 25.8759 9.52591C26.5828 9.19721 27.3362 8.9742 28.1082 8.86575L28.8264 8.76487C29.5039 8.66969 30.1903 8.65556 30.8712 8.72277C32.2615 8.86003 33.5977 9.33339 34.7644 10.102L35.2135 10.3979L35.3898 10.5497C36.3962 11.4162 37.2083 12.4854 37.7731 13.6874L37.8614 13.8752C38.0356 14.246 38.1772 14.6312 38.2846 15.0265C38.5427 15.9766 38.5992 16.9702 38.4504 17.9435L38.3101 18.8611C38.2104 19.5131 38.0545 20.1553 37.8442 20.7804L37.815 20.8673C37.4027 22.093 36.8027 23.2474 36.0365 24.2891L35.4967 25.023C34.7863 25.9889 33.9829 26.8827 33.0981 27.6918L30.3448 30.2092C29.9209 30.5968 29.5264 31.0154 29.1647 31.4616L28.7499 31.9734C28.5249 32.251 28.3291 32.551 28.1657 32.8688L27.931 33.325C27.8405 33.5009 27.7779 33.6899 27.7454 33.885L27.6812 34.2703C27.6264 34.5989 27.7238 34.9346 27.946 35.1828C28.1542 35.4156 28.4518 35.5486 28.7641 35.5486H28.836H29.0663C29.2366 35.5486 29.4047 35.5095 29.5576 35.4344C29.7064 35.3612 29.837 35.2558 29.9399 35.1258L30.5217 34.3902L31.0901 33.5223L31.9408 32.1243L33.3229 30.3654L34.5782 29.0776C35.4832 28.1491 36.4903 27.326 37.5803 26.6238L37.8717 26.4361C38.6762 25.9178 39.4248 25.3177 40.1057 24.6452L40.4553 24.3C41.109 23.6543 41.6727 22.9236 42.1313 22.1275C42.9725 20.3832 43.3744 18.4596 43.3021 16.5244L43.274 15.7749L43.1735 15.2089C42.874 13.5236 42.301 11.8985 41.4773 10.3979L40.4132 8.94409C40.0177 8.40374 39.5756 7.8991 39.0919 7.43596C38.0999 6.48597 36.9452 5.72207 35.6828 5.18073L35.5752 5.1346C34.9043 4.8469 34.2088 4.62048 33.4971 4.45811L33.1943 4.38905C32.0611 4.1305 30.9024 4 29.74 4H29.185C28.2355 4 27.2782 4.09243 26.3459 4.27227C25.4523 4.44461 24.5673 4.70122 23.7208 5.03519C22.5469 5.49833 21.4374 6.11043 20.4195 6.85645L19.5826 7.46987C18.8606 7.99905 18.1886 8.59317 17.5749 9.24482L17.4181 9.41122C16.9341 9.92519 16.4961 10.4806 16.1091 11.0711C15.3781 12.1866 14.837 13.4155 14.5078 14.7079L14.4032 15.1183C14.2091 15.88 14.0769 16.6561 14.0077 17.4391L13.9734 17.8265V18.1131C13.9734 19.3546 14.2263 20.5831 14.7167 21.7236C14.9086 22.1699 15.1358 22.6002 15.3961 23.0104L16.3116 24.453C17.0207 25.3822 17.5455 26.4384 17.8578 27.5648L17.9478 27.8892L18.6095 29.9917L19.1399 31.5911L19.5759 33.486L19.6151 33.7497C19.8762 35.5054 19.9648 37.2825 19.8794 39.0554V39.2842C19.8794 39.3483 19.8025 39.381 19.7563 39.3365C19.7465 39.327 19.7395 39.315 19.7362 39.3017L19.5759 38.6555L19.3636 37.9272L19.1399 37.3226L18.7993 36.3896L18.3805 35.4566L17.9701 34.257L17.6937 33.486L17.6284 33.2864C17.1276 31.754 16.5022 30.2652 15.7587 28.8347L14.7828 27.1926L13.5508 25.6576C13.1885 25.2064 12.7806 24.7937 12.3336 24.4264C11.6621 23.8746 10.9091 23.4304 10.1014 23.1097L8.58326 22.5067L6.07406 21.4134L5.5612 21.1838C5.31346 21.0729 5.04411 21.2888 5.09848 21.5547C5.10387 21.581 5.10605 21.6079 5.10497 21.6348L4.93179 25.9657C4.87112 27.4829 5.07461 28.9992 5.53318 30.4467C5.80094 31.2919 6.15378 32.1078 6.5863 32.8818L7.31796 34.191C8.15717 35.4724 9.17555 36.627 10.3421 37.6197L10.9328 38.1224L14.3608 40.7236C14.5983 40.9038 14.9163 40.6398 14.7828 40.3732L13.7027 37.5741L12.7295 35.3233L12.245 34.1237L11.5637 32.5768C11.4017 32.2088 11.2135 31.853 11.0005 31.5119L10.3139 30.412C10.2906 30.3748 10.2735 30.3341 10.2632 30.2914C10.1699 29.9052 10.6262 29.6259 10.9276 29.8848L12.6647 31.3761C12.7079 31.4131 12.7482 31.4533 12.7854 31.4963L13.5588 32.3909L14.3197 33.3675C14.9876 34.2248 15.5663 35.1481 16.0466 36.123L16.8759 38.0414L16.8949 38.0854C17.2501 38.9082 17.6775 39.6978 18.1723 40.445C18.6759 41.2054 19.247 41.9188 19.8789 42.5765L21.1489 43.8983L22.2624 44.982C22.7245 45.4317 23.2274 45.8377 23.7644 46.1948C24.323 46.5661 24.916 46.8828 25.5353 47.1404L26.0334 47.3476C26.5268 47.5529 27.0352 47.7197 27.5543 47.8466C28.4053 48.0547 29.2793 48.1542 30.1554 48.1427L30.5689 48.1372C31.4812 48.1252 32.39 48.0216 33.2815 47.8281L34.4286 47.579L36.4006 46.8974L38.1488 46.1106C39.2444 45.4986 40.2357 44.7163 41.0855 43.7929L41.5201 43.3207C42.4761 42.3505 43.2583 41.2231 43.8324 39.9879L43.8609 39.9266L44.073 39.3396C44.5532 38.0106 44.933 36.6474 45.209 35.2614L45.3201 34.1237V33.3239V32.1243L45.2577 31.4511C45.2253 31.1007 45.1646 30.7535 45.0763 30.4129C44.9807 30.0439 44.8529 29.684 44.6946 29.3372L44.5065 28.9253L44.0919 28.2589C43.8343 27.88 43.4808 27.5763 43.0676 27.3787L42.9716 27.3329C42.7977 27.2497 42.6145 27.1871 42.426 27.1465L42.336 27.1271C42.2245 27.103 42.1109 27.0909 41.9969 27.0909H41.7866C41.6127 27.0909 41.4424 27.1414 41.2966 27.2362C40.9087 27.4882 40.7753 27.9935 40.9883 28.4042Z"/>
</mask>
<path d="M40.9883 28.4042L41.0512 28.5255C41.7904 29.5838 42.3409 30.7621 42.6783 32.0081L42.7098 32.1243L42.9648 34.0261L42.9782 34.2924C42.9936 34.5975 42.5769 34.7003 42.4485 34.4231C42.4384 34.4013 42.4256 34.3809 42.4103 34.3624L42.2734 34.1974C42.179 34.0836 42.098 33.9592 42.0321 33.8269L41.6443 33.0484C41.2509 32.2585 40.7487 31.5277 40.1524 30.8772L40.0738 30.7914L39.9248 30.5978C39.5867 30.1585 39.0012 29.992 38.4825 30.1875L38.367 30.231C38.1382 30.3173 37.9515 30.4883 37.8454 30.7086C37.7835 30.8372 37.7513 30.9782 37.7513 31.121V31.1862C37.7513 31.4493 37.8352 31.7055 37.9908 31.9177L38.2401 32.2576L39.113 33.3239L39.5349 33.9762C39.7125 34.2508 39.849 34.5498 39.9403 34.8637C40.0289 35.1686 40.0738 35.4844 40.0738 35.8018V36.432C40.0738 37.5283 39.7125 38.594 39.0459 39.4643C38.8106 39.7714 38.5403 40.0502 38.2406 40.2948L37.6611 40.7679C37.4271 40.9588 37.1788 41.1315 36.9183 41.2843L36.4742 41.5447C36.4252 41.5735 36.3735 41.5971 36.3197 41.6153L36.1202 41.683C35.8318 41.7807 35.5159 41.6466 35.3859 41.3713C35.2936 41.1757 35.3138 40.9456 35.4388 40.7691L35.6141 40.5216L35.6254 40.5005C36.1398 39.5415 36.5223 38.5174 36.7625 37.4559L37.0982 35.7919C37.1597 35.4874 37.1227 35.1712 36.9926 34.8891L36.9813 34.8648C36.8403 34.5588 36.593 34.3144 36.2855 34.1768L36.2338 34.1536C36.0471 34.07 35.8418 34.0365 35.6382 34.0563C35.2102 34.0978 34.8389 34.369 34.669 34.764L34.5048 35.1459C34.4541 35.2639 34.4156 35.3866 34.3899 35.5124L34.2753 36.073C34.1792 36.5432 34.0379 37.003 33.8535 37.446L33.7997 37.5753C33.5012 38.2924 33.1102 38.9674 32.6367 39.5831L32.0305 40.3712C31.6817 40.8247 31.2715 41.2274 30.8115 41.5676C30.198 42.0215 29.5055 42.3574 28.7693 42.5582L28.6237 42.5979L28.4315 42.6272C27.7451 42.7319 27.0431 42.6354 26.4104 42.3494C25.8847 42.1118 25.4239 41.7511 25.067 41.2978L24.3392 40.3732C23.7943 39.4967 23.3353 38.5696 22.9688 37.6048L22.9571 37.5741L22.8517 37.1228C22.5944 36.0209 22.5365 34.8818 22.6807 33.7595C22.8646 32.7839 23.134 31.8264 23.4857 30.8981L23.8291 29.9917L24.4818 28.6499C25.2503 27.0701 26.3058 25.6469 27.5945 24.453L29.3252 22.717L30.8137 21.0708L31.4521 20.2614C31.8399 19.6824 32.0863 19.0203 32.1713 18.3286L32.1744 18.3033V17.3291L32.168 17.2772C32.0886 16.6378 31.7158 16.0718 31.1597 15.7464C30.8426 15.5608 30.4819 15.463 30.1145 15.463H29.829C29.4338 15.463 29.0422 15.538 28.675 15.6841L28.2721 15.8444C27.5784 16.1203 26.9497 16.5373 26.4259 17.0691L25.6446 17.8622L24.8306 18.938C24.164 19.8189 23.5685 20.7514 23.0498 21.7268L22.484 22.7908C22.2471 23.2362 21.9688 23.6584 21.6529 24.0517L21.1315 24.7008C20.3212 25.7096 19.8794 26.9649 19.8794 28.2589C19.8794 28.0146 19.8332 27.7726 19.7432 27.5455L19.3893 26.6528C19.0084 25.6918 18.8462 24.658 18.9144 23.6266L18.996 22.3941L19.1867 21.3283C19.4882 19.6435 19.9516 17.9918 20.5705 16.396C20.9484 15.2657 21.4455 14.1788 22.0533 13.1537L22.1278 13.028L22.7612 12.1288C23.243 11.4447 23.831 10.8419 24.5028 10.3431C24.9312 10.025 25.3921 9.75087 25.8759 9.52591C26.5828 9.19721 27.3362 8.9742 28.1082 8.86575L28.8264 8.76487C29.5039 8.66969 30.1903 8.65556 30.8712 8.72277C32.2615 8.86003 33.5977 9.33339 34.7644 10.102L35.2135 10.3979L35.3898 10.5497C36.3962 11.4162 37.2083 12.4854 37.7731 13.6874L37.8614 13.8752C38.0356 14.246 38.1772 14.6312 38.2846 15.0265C38.5427 15.9766 38.5992 16.9702 38.4504 17.9435L38.3101 18.8611C38.2104 19.5131 38.0545 20.1553 37.8442 20.7804L37.815 20.8673C37.4027 22.093 36.8027 23.2474 36.0365 24.2891L35.4967 25.023C34.7863 25.9889 33.9829 26.8827 33.0981 27.6918L30.3448 30.2092C29.9209 30.5968 29.5264 31.0154 29.1647 31.4616L28.7499 31.9734C28.5249 32.251 28.3291 32.551 28.1657 32.8688L27.931 33.325C27.8405 33.5009 27.7779 33.6899 27.7454 33.885L27.6812 34.2703C27.6264 34.5989 27.7238 34.9346 27.946 35.1828C28.1542 35.4156 28.4518 35.5486 28.7641 35.5486H28.836H29.0663C29.2366 35.5486 29.4047 35.5095 29.5576 35.4344C29.7064 35.3612 29.837 35.2558 29.9399 35.1258L30.5217 34.3902L31.0901 33.5223L31.9408 32.1243L33.3229 30.3654L34.5782 29.0776C35.4832 28.1491 36.4903 27.326 37.5803 26.6238L37.8717 26.4361C38.6762 25.9178 39.4248 25.3177 40.1057 24.6452L40.4553 24.3C41.109 23.6543 41.6727 22.9236 42.1313 22.1275C42.9725 20.3832 43.3744 18.4596 43.3021 16.5244L43.274 15.7749L43.1735 15.2089C42.874 13.5236 42.301 11.8985 41.4773 10.3979L40.4132 8.94409C40.0177 8.40374 39.5756 7.8991 39.0919 7.43596C38.0999 6.48597 36.9452 5.72207 35.6828 5.18073L35.5752 5.1346C34.9043 4.8469 34.2088 4.62048 33.4971 4.45811L33.1943 4.38905C32.0611 4.1305 30.9024 4 29.74 4H29.185C28.2355 4 27.2782 4.09243 26.3459 4.27227C25.4523 4.44461 24.5673 4.70122 23.7208 5.03519C22.5469 5.49833 21.4374 6.11043 20.4195 6.85645L19.5826 7.46987C18.8606 7.99905 18.1886 8.59317 17.5749 9.24482L17.4181 9.41122C16.9341 9.92519 16.4961 10.4806 16.1091 11.0711C15.3781 12.1866 14.837 13.4155 14.5078 14.7079L14.4032 15.1183C14.2091 15.88 14.0769 16.6561 14.0077 17.4391L13.9734 17.8265V18.1131C13.9734 19.3546 14.2263 20.5831 14.7167 21.7236C14.9086 22.1699 15.1358 22.6002 15.3961 23.0104L16.3116 24.453C17.0207 25.3822 17.5455 26.4384 17.8578 27.5648L17.9478 27.8892L18.6095 29.9917L19.1399 31.5911L19.5759 33.486L19.6151 33.7497C19.8762 35.5054 19.9648 37.2825 19.8794 39.0554V39.2842C19.8794 39.3483 19.8025 39.381 19.7563 39.3365C19.7465 39.327 19.7395 39.315 19.7362 39.3017L19.5759 38.6555L19.3636 37.9272L19.1399 37.3226L18.7993 36.3896L18.3805 35.4566L17.9701 34.257L17.6937 33.486L17.6284 33.2864C17.1276 31.754 16.5022 30.2652 15.7587 28.8347L14.7828 27.1926L13.5508 25.6576C13.1885 25.2064 12.7806 24.7937 12.3336 24.4264C11.6621 23.8746 10.9091 23.4304 10.1014 23.1097L8.58326 22.5067L6.07406 21.4134L5.5612 21.1838C5.31346 21.0729 5.04411 21.2888 5.09848 21.5547C5.10387 21.581 5.10605 21.6079 5.10497 21.6348L4.93179 25.9657C4.87112 27.4829 5.07461 28.9992 5.53318 30.4467C5.80094 31.2919 6.15378 32.1078 6.5863 32.8818L7.31796 34.191C8.15717 35.4724 9.17555 36.627 10.3421 37.6197L10.9328 38.1224L14.3608 40.7236C14.5983 40.9038 14.9163 40.6398 14.7828 40.3732L13.7027 37.5741L12.7295 35.3233L12.245 34.1237L11.5637 32.5768C11.4017 32.2088 11.2135 31.853 11.0005 31.5119L10.3139 30.412C10.2906 30.3748 10.2735 30.3341 10.2632 30.2914C10.1699 29.9052 10.6262 29.6259 10.9276 29.8848L12.6647 31.3761C12.7079 31.4131 12.7482 31.4533 12.7854 31.4963L13.5588 32.3909L14.3197 33.3675C14.9876 34.2248 15.5663 35.1481 16.0466 36.123L16.8759 38.0414L16.8949 38.0854C17.2501 38.9082 17.6775 39.6978 18.1723 40.445C18.6759 41.2054 19.247 41.9188 19.8789 42.5765L21.1489 43.8983L22.2624 44.982C22.7245 45.4317 23.2274 45.8377 23.7644 46.1948C24.323 46.5661 24.916 46.8828 25.5353 47.1404L26.0334 47.3476C26.5268 47.5529 27.0352 47.7197 27.5543 47.8466C28.4053 48.0547 29.2793 48.1542 30.1554 48.1427L30.5689 48.1372C31.4812 48.1252 32.39 48.0216 33.2815 47.8281L34.4286 47.579L36.4006 46.8974L38.1488 46.1106C39.2444 45.4986 40.2357 44.7163 41.0855 43.7929L41.5201 43.3207C42.4761 42.3505 43.2583 41.2231 43.8324 39.9879L43.8609 39.9266L44.073 39.3396C44.5532 38.0106 44.933 36.6474 45.209 35.2614L45.3201 34.1237V33.3239V32.1243L45.2577 31.4511C45.2253 31.1007 45.1646 30.7535 45.0763 30.4129C44.9807 30.0439 44.8529 29.684 44.6946 29.3372L44.5065 28.9253L44.0919 28.2589C43.8343 27.88 43.4808 27.5763 43.0676 27.3787L42.9716 27.3329C42.7977 27.2497 42.6145 27.1871 42.426 27.1465L42.336 27.1271C42.2245 27.103 42.1109 27.0909 41.9969 27.0909H41.7866C41.6127 27.0909 41.4424 27.1414 41.2966 27.2362C40.9087 27.4882 40.7753 27.9935 40.9883 28.4042Z" stroke="url(#paint0_linear_563_135)" stroke-width="8" mask="url(#path-2-outside-1_563_135)"/>
<defs>
<linearGradient id="paint0_linear_563_135" x1="50.6001" y1="26.08" x2="-3.95991" y2="26.08" gradientUnits="userSpaceOnUse">
<stop stop-color="#A7C7E7"/>
<stop offset="0.5" stop-color="#0F0F0F" stop-opacity="0.1"/>
<stop offset="1" stop-color="#98FB98"/>
</linearGradient>
</defs>
</svg>
