<svg width="22" height="22" viewBox="0 0 22 22" fill="none" xmlns="http://www.w3.org/2000/svg">
<path d="M11 2.75H4.58333C4.0971 2.75 3.63079 2.94315 3.28697 3.28697C2.94315 3.63079 2.75 4.0971 2.75 4.58333V17.4167C2.75 17.9029 2.94315 18.3692 3.28697 18.713C3.63079 19.0568 4.0971 19.25 4.58333 19.25H17.4167C17.9029 19.25 18.3692 19.0568 18.713 18.713C19.0568 18.3692 19.25 17.9029 19.25 17.4167V11" stroke="black" stroke-width="2" stroke-linecap="round" stroke-linejoin="round"/>
<path d="M16.8437 2.40646C17.2083 2.04178 17.7029 1.83691 18.2187 1.83691C18.7344 1.83691 19.229 2.04178 19.5937 2.40646C19.9583 2.77113 20.1632 3.26573 20.1632 3.78146C20.1632 4.29718 19.9583 4.79179 19.5937 5.15646L11.3318 13.4193C11.1141 13.6368 10.8452 13.796 10.5498 13.8822L7.91626 14.6522C7.83738 14.6752 7.75377 14.6766 7.67417 14.6562C7.59458 14.6358 7.52193 14.5944 7.46383 14.5363C7.40573 14.4782 7.36432 14.4056 7.34393 14.326C7.32354 14.2464 7.32492 14.1628 7.34792 14.0839L8.11792 11.4503C8.20457 11.1552 8.36408 10.8866 8.58176 10.6693L16.8437 2.40646Z" stroke="black" stroke-width="2" stroke-linecap="round" stroke-linejoin="round"/>
</svg>
