<svg width="20" height="20" viewBox="0 0 20 20" fill="none" xmlns="http://www.w3.org/2000/svg">
<path d="M1.66675 4.58325L7.42758 7.85409C9.53258 9.04825 10.4676 9.04825 12.5726 7.85409L18.3334 4.58325" stroke="black" stroke-width="1.5" stroke-linejoin="round"/>
<path d="M9.58338 16.6633C9.19505 16.6583 7.97255 16.6733 7.58255 16.6633C4.95838 16.5966 3.64672 16.5641 2.70422 15.6158C1.76172 14.6674 1.73422 13.3883 1.67922 10.8291C1.66162 10.0078 1.66162 9.18622 1.67922 8.36493C1.73422 5.80493 1.76172 4.52576 2.70422 3.57743C3.64672 2.6291 4.95838 2.5966 7.58255 2.53076C9.19922 2.4891 10.8009 2.4891 12.4175 2.53076C15.0417 2.5966 16.3534 2.62993 17.2959 3.57743C18.2384 4.52493 18.2659 5.80493 18.3209 8.36493C18.3317 8.91493 18.3359 8.62826 18.3317 9.17659" stroke="black" stroke-width="1.5" stroke-linecap="round" stroke-linejoin="round"/>
<path d="M12.5126 11.9891C13.4067 11.4558 14.1867 11.6708 14.6551 12.0124C14.8467 12.1533 14.9434 12.2233 15.0001 12.2233C15.0567 12.2233 15.1526 12.1533 15.3451 12.0124C15.8134 11.6708 16.5934 11.4558 17.4876 11.9891C18.6609 12.6891 18.9259 14.9966 16.2209 16.9433C15.7042 17.3141 15.4476 17.4999 15.0001 17.4999C14.5526 17.4999 14.2951 17.3141 13.7801 16.9433C11.0742 14.9966 11.3392 12.6883 12.5126 11.9891Z" stroke="black" stroke-width="1.5" stroke-linecap="round"/>
</svg>
