<svg width="28" height="28" viewBox="0 0 28 28" fill="none" xmlns="http://www.w3.org/2000/svg">
<path d="M11.6668 17.5002L17.7218 14.0002L11.6668 10.5002V17.5002ZM25.1535 8.36516C25.3052 8.9135 25.4102 9.6485 25.4802 10.5818C25.5618 11.5152 25.5968 12.3202 25.5968 13.0202L25.6668 14.0002C25.6668 16.5552 25.4802 18.4335 25.1535 19.6352C24.8618 20.6852 24.1852 21.3618 23.1352 21.6535C22.5868 21.8052 21.5835 21.9102 20.0435 21.9802C18.5268 22.0618 17.1385 22.0968 15.8552 22.0968L14.0002 22.1668C9.11183 22.1668 6.06683 21.9802 4.86516 21.6535C3.81516 21.3618 3.1385 20.6852 2.84683 19.6352C2.69516 19.0868 2.59016 18.3518 2.52016 17.4185C2.4385 16.4852 2.4035 15.6802 2.4035 14.9802L2.3335 14.0002C2.3335 11.4452 2.52016 9.56683 2.84683 8.36516C3.1385 7.31516 3.81516 6.6385 4.86516 6.34683C5.4135 6.19516 6.41683 6.09016 7.95683 6.02016C9.4735 5.9385 10.8618 5.9035 12.1452 5.9035L14.0002 5.8335C18.8885 5.8335 21.9335 6.02016 23.1352 6.34683C24.1852 6.6385 24.8618 7.31516 25.1535 8.36516Z" fill="white"/>
</svg>
