<svg width="28" height="28" viewBox="0 0 28 28" fill="none" xmlns="http://www.w3.org/2000/svg">
<path d="M9.10016 2.3335H18.9002C22.6335 2.3335 25.6668 5.36683 25.6668 9.10016V18.9002C25.6668 20.6948 24.9539 22.4159 23.6849 23.6849C22.4159 24.9539 20.6948 25.6668 18.9002 25.6668H9.10016C5.36683 25.6668 2.3335 22.6335 2.3335 18.9002V9.10016C2.3335 7.30553 3.04641 5.5844 4.31541 4.31541C5.5844 3.04641 7.30553 2.3335 9.10016 2.3335ZM8.86683 4.66683C7.75292 4.66683 6.68463 5.10933 5.89698 5.89698C5.10933 6.68463 4.66683 7.75292 4.66683 8.86683V19.1335C4.66683 21.4552 6.54516 23.3335 8.86683 23.3335H19.1335C20.2474 23.3335 21.3157 22.891 22.1033 22.1033C22.891 21.3157 23.3335 20.2474 23.3335 19.1335V8.86683C23.3335 6.54516 21.4552 4.66683 19.1335 4.66683H8.86683ZM20.1252 6.41683C20.5119 6.41683 20.8829 6.57048 21.1564 6.84397C21.4299 7.11746 21.5835 7.48839 21.5835 7.87516C21.5835 8.26194 21.4299 8.63287 21.1564 8.90636C20.8829 9.17985 20.5119 9.3335 20.1252 9.3335C19.7384 9.3335 19.3675 9.17985 19.094 8.90636C18.8205 8.63287 18.6668 8.26194 18.6668 7.87516C18.6668 7.48839 18.8205 7.11746 19.094 6.84397C19.3675 6.57048 19.7384 6.41683 20.1252 6.41683ZM14.0002 8.16683C15.5473 8.16683 17.031 8.78141 18.125 9.87537C19.2189 10.9693 19.8335 12.4531 19.8335 14.0002C19.8335 15.5473 19.2189 17.031 18.125 18.125C17.031 19.2189 15.5473 19.8335 14.0002 19.8335C12.4531 19.8335 10.9693 19.2189 9.87537 18.125C8.78141 17.031 8.16683 15.5473 8.16683 14.0002C8.16683 12.4531 8.78141 10.9693 9.87537 9.87537C10.9693 8.78141 12.4531 8.16683 14.0002 8.16683ZM14.0002 10.5002C13.0719 10.5002 12.1817 10.8689 11.5253 11.5253C10.8689 12.1817 10.5002 13.0719 10.5002 14.0002C10.5002 14.9284 10.8689 15.8187 11.5253 16.475C12.1817 17.1314 13.0719 17.5002 14.0002 17.5002C14.9284 17.5002 15.8187 17.1314 16.475 16.475C17.1314 15.8187 17.5002 14.9284 17.5002 14.0002C17.5002 13.0719 17.1314 12.1817 16.475 11.5253C15.8187 10.8689 14.9284 10.5002 14.0002 10.5002Z" fill="white"/>
</svg>
