<svg width="17" height="20" viewBox="0 0 17 20" fill="none" xmlns="http://www.w3.org/2000/svg">
<path d="M13.1875 5.27019V8.75198C13.1875 9.90626 12.6936 11.0133 11.8146 11.8295C10.9355 12.6457 9.7432 13.1042 8.5 13.1042C7.2568 13.1042 6.06451 12.6457 5.18544 11.8295C4.30636 11.0133 3.8125 9.90626 3.8125 8.75198V5.27019C3.8125 4.11591 4.30636 3.00891 5.18544 2.19271C6.06451 1.37651 7.2568 0.917969 8.5 0.917969C9.7432 0.917969 10.9355 1.37651 11.8146 2.19271C12.6936 3.00891 13.1875 4.11591 13.1875 5.27019Z" stroke="black" stroke-width="1.5"/>
<path d="M13.1875 5.27002H10.375M13.1875 8.7518H10.375M16 8.7518C16 10.5987 15.2098 12.3699 13.8033 13.6758C12.3968 14.9817 10.4891 15.7154 8.5 15.7154M8.5 15.7154C6.51088 15.7154 4.60322 14.9817 3.1967 13.6758C1.79018 12.3699 1 10.5987 1 8.7518M8.5 15.7154V18.3267M8.5 18.3267H11.3125M8.5 18.3267H5.6875" stroke="black" stroke-width="1.5" stroke-linecap="round"/>
</svg>
