<svg width="26" height="26" viewBox="0 0 26 26" fill="none" xmlns="http://www.w3.org/2000/svg">
<rect x="0.581543" y="0.5" width="24.8544" height="24.8544" stroke="url(#paint0_linear_1543_187)"/>
<path d="M13.0089 11.8499C13.2231 11.8499 13.4287 11.935 13.5802 12.0865C13.7317 12.238 13.8168 12.4435 13.8168 12.6578V13.1964C13.8168 13.4107 13.7317 13.6162 13.5802 13.7677C13.4287 13.9193 13.2231 14.0044 13.0089 14.0044C12.7946 14.0044 12.5891 13.9193 12.4376 13.7677C12.286 13.6162 12.2009 13.4107 12.2009 13.1964V12.6578C12.2009 12.4435 12.286 12.238 12.4376 12.0865C12.5891 11.935 12.7946 11.8499 13.0089 11.8499ZM17.3179 11.8499C17.5322 11.8499 17.7377 11.935 17.8892 12.0865C18.0408 12.238 18.1259 12.4435 18.1259 12.6578V13.1964C18.1259 13.4107 18.0408 13.6162 17.8892 13.7677C17.7377 13.9193 17.5322 14.0044 17.3179 14.0044C17.1037 14.0044 16.8981 13.9193 16.7466 13.7677C16.5951 13.6162 16.51 13.4107 16.51 13.1964V12.6578C16.51 12.4435 16.5951 12.238 16.7466 12.0865C16.8981 11.935 17.1037 11.8499 17.3179 11.8499ZM8.6998 11.8499C8.91408 11.8499 9.11958 11.935 9.2711 12.0865C9.42262 12.238 9.50775 12.4435 9.50775 12.6578V13.1964C9.50775 13.4107 9.42262 13.6162 9.2711 13.7677C9.11958 13.9193 8.91408 14.0044 8.6998 14.0044C8.48551 14.0044 8.28001 13.9193 8.12849 13.7677C7.97697 13.6162 7.89185 13.4107 7.89185 13.1964V12.6578C7.89185 12.4435 7.97697 12.238 8.12849 12.0865C8.28001 11.935 8.48551 11.8499 8.6998 11.8499Z" fill="black"/>
<defs>
<linearGradient id="paint0_linear_1543_187" x1="0.560328" y1="0.70512" x2="30.4795" y2="14.3746" gradientUnits="userSpaceOnUse">
<stop stop-color="white" stop-opacity="0.9"/>
<stop offset="1" stop-color="white" stop-opacity="0"/>
</linearGradient>
</defs>
</svg>
