<svg width="22" height="22" viewBox="0 0 22 22" fill="none" xmlns="http://www.w3.org/2000/svg">
<path d="M11 19.25C12.6317 19.25 14.2267 18.7662 15.5835 17.8596C16.9402 16.9531 17.9976 15.6646 18.622 14.1571C19.2464 12.6497 19.4098 10.9909 19.0915 9.39051C18.7732 7.79017 17.9874 6.32016 16.8336 5.16637C15.6798 4.01259 14.2098 3.22685 12.6095 2.90853C11.0092 2.5902 9.35035 2.75357 7.84286 3.378C6.33537 4.00242 5.0469 5.05984 4.14038 6.41655C3.23385 7.77325 2.75 9.36831 2.75 11C2.75 12.32 3.05983 13.5667 3.61167 14.6731C4.02692 15.5082 3.44942 16.6348 3.22942 17.457C3.18068 17.6389 3.18067 17.8303 3.22939 18.0122C3.27812 18.1941 3.37385 18.3599 3.50698 18.493C3.64011 18.6262 3.80594 18.7219 3.9878 18.7706C4.16966 18.8193 4.36114 18.8193 4.543 18.7706C5.36525 18.5506 6.49183 17.9731 7.32692 18.3893C8.46836 18.956 9.72559 19.2506 11 19.25Z" stroke="black" stroke-width="1.5" stroke-linecap="round" stroke-linejoin="round"/>
</svg>
