<svg width="52" height="52" viewBox="0 0 52 52" fill="none" xmlns="http://www.w3.org/2000/svg">
<path fill-rule="evenodd" clip-rule="evenodd" d="M4.95459 25.9147C4.95459 14.2912 14.3767 4.86914 26.0002 4.86914C37.6236 4.86914 47.0457 14.2912 47.0457 25.9147C47.0457 37.5382 37.6236 46.9603 26.0002 46.9603C14.3767 46.9603 4.95459 37.5382 4.95459 25.9147ZM19.6865 17.4965C18.8492 17.4965 18.0463 17.8291 17.4543 18.4211C16.8622 19.0131 16.5296 19.8161 16.5296 20.6533V20.6744C16.5296 21.5116 16.8622 22.3146 17.4543 22.9066C18.0463 23.4986 18.8492 23.8312 19.6865 23.8312H19.7075C20.5448 23.8312 21.3477 23.4986 21.9397 22.9066C22.5318 22.3146 22.8644 21.5116 22.8644 20.6744V20.6533C22.8644 19.8161 22.5318 19.0131 21.9397 18.4211C21.3477 17.8291 20.5448 17.4965 19.7075 17.4965H19.6865ZM32.3138 17.4965C31.4766 17.4965 30.6736 17.8291 30.0816 18.4211C29.4896 19.0131 29.157 19.8161 29.157 20.6533V20.6744C29.157 21.5116 29.4896 22.3146 30.0816 22.9066C30.6736 23.4986 31.4766 23.8312 32.3138 23.8312H32.3349C33.1721 23.8312 33.9751 23.4986 34.5671 22.9066C35.1591 22.3146 35.4917 21.5116 35.4917 20.6744V20.6533C35.4917 19.8161 35.1591 19.0131 34.5671 18.4211C33.9751 17.8291 33.1721 17.4965 32.3349 17.4965H32.3138ZM17.5819 32.2284C17.5819 31.6702 17.8037 31.1349 18.1983 30.7402C18.593 30.3455 19.1283 30.1238 19.6865 30.1238H32.3138C32.872 30.1238 33.4073 30.3455 33.802 30.7402C34.1966 31.1349 34.4184 31.6702 34.4184 32.2284C34.4184 32.7865 34.1966 33.3218 33.802 33.7165C33.4073 34.1112 32.872 34.3329 32.3138 34.3329H19.6865C19.1283 34.3329 18.593 34.1112 18.1983 33.7165C17.8037 33.3218 17.5819 32.7865 17.5819 32.2284Z" fill="#A2B2C1"/>
</svg>
