<svg width="51" height="52" viewBox="0 0 51 52" fill="none" xmlns="http://www.w3.org/2000/svg">
<path fill-rule="evenodd" clip-rule="evenodd" d="M25.7455 5.12634C37.369 5.12634 46.7911 14.5484 46.7911 26.1719C46.7911 37.7954 37.369 47.2175 25.7455 47.2175C14.122 47.2175 4.69995 37.7954 4.69995 26.1719C4.69995 14.5484 14.122 5.12634 25.7455 5.12634ZM25.7455 28.2765C23.1826 28.2766 20.7079 29.212 18.7857 30.9072C18.3671 31.2764 18.1123 31.7968 18.0774 32.3539C18.0425 32.911 18.2303 33.4591 18.5995 33.8777C18.9687 34.2964 19.4891 34.5512 20.0462 34.5861C20.6033 34.621 21.1514 34.4332 21.5701 34.064C22.7233 33.047 24.2079 32.4857 25.7455 32.4856C27.2838 32.4818 28.7698 33.0436 29.921 34.064C30.3396 34.4335 30.8878 34.6216 31.4451 34.5868C32.0024 34.5521 32.5231 34.2974 32.8926 33.8788C33.2621 33.4602 33.4502 32.9119 33.4154 32.3546C33.3807 31.7973 33.126 31.2767 32.7074 30.9072C30.7847 29.2115 28.3091 28.276 25.7455 28.2765ZM18.3796 17.7537C17.5423 17.7537 16.7394 18.0863 16.1473 18.6783C15.5553 19.2703 15.2227 20.0733 15.2227 20.9105C15.2227 21.7478 15.5553 22.5507 16.1473 23.1427C16.7394 23.7348 17.5423 24.0673 18.3796 24.0673C19.2168 24.0673 20.0198 23.7348 20.6118 23.1427C21.2038 22.5507 21.5364 21.7478 21.5364 20.9105C21.5364 20.0733 21.2038 19.2703 20.6118 18.6783C20.0198 18.0863 19.2168 17.7537 18.3796 17.7537ZM33.1115 17.7537C32.2742 17.7537 31.4713 18.0863 30.8792 18.6783C30.2872 19.2703 29.9546 20.0733 29.9546 20.9105C29.9546 21.7478 30.2872 22.5507 30.8792 23.1427C31.4713 23.7348 32.2742 24.0673 33.1115 24.0673C33.9487 24.0673 34.7517 23.7348 35.3437 23.1427C35.9357 22.5507 36.2683 21.7478 36.2683 20.9105C36.2683 20.0733 35.9357 19.2703 35.3437 18.6783C34.7517 18.0863 33.9487 17.7537 33.1115 17.7537Z" fill="#A6A0A0"/>
</svg>
