<svg width="32" height="32" viewBox="0 0 32 32" fill="none" xmlns="http://www.w3.org/2000/svg">
<path d="M27.9998 10.6665V22.6665C27.9998 23.0201 27.8592 23.3592 27.6092 23.6092L24.9425 26.2758C24.896 26.3226 24.8461 26.3658 24.7932 26.4052L24.6465 26.4998L24.4945 26.5718L24.3545 26.6185L24.1558 26.6585L23.9998 26.6665H6.6665C5.60564 26.6665 4.58822 26.2451 3.83808 25.4949C3.08793 24.7448 2.6665 23.7274 2.6665 22.6665C2.6665 21.6056 3.08793 20.5882 3.83808 19.8381C4.58822 19.0879 5.60564 18.6665 6.6665 18.6665H11.9998C12.3535 18.6665 12.6926 18.526 12.9426 18.276C13.1927 18.0259 13.3332 17.6868 13.3332 17.3332C13.3332 16.9795 13.1927 16.6404 12.9426 16.3904C12.6926 16.1403 12.3535 15.9998 11.9998 15.9998H7.99984C7.64622 15.9998 7.30708 15.8594 7.05703 15.6093C6.80698 15.3593 6.6665 15.0201 6.6665 14.6665C6.6665 14.3129 6.80698 13.9737 7.05703 13.7237C7.30708 13.4736 7.64622 13.3332 7.99984 13.3332H11.9998C13.0607 13.3332 14.0781 13.7546 14.8283 14.5047C15.5784 15.2549 15.9998 16.2723 15.9998 17.3332C15.9998 18.394 15.5784 19.4115 14.8283 20.1616C14.0781 20.9117 13.0607 21.3332 11.9998 21.3332H6.6665C6.31288 21.3332 5.97374 21.4736 5.7237 21.7237C5.47365 21.9737 5.33317 22.3129 5.33317 22.6665C5.33317 23.0201 5.47365 23.3593 5.7237 23.6093C5.97374 23.8594 6.31288 23.9998 6.6665 23.9998H20.7798L20.3905 23.6092C20.1404 23.3592 19.9999 23.0201 19.9998 22.6665V10.6665H27.9998ZM23.9998 2.6665C26.2305 2.6665 27.9998 4.43584 27.9998 6.6665V7.99984H19.9998V6.6665C19.9998 4.43584 21.7692 2.6665 23.9998 2.6665Z" fill="black"/>
</svg>
