<svg width="18" height="18" viewBox="0 0 18 18" fill="none" xmlns="http://www.w3.org/2000/svg">
<path d="M9 1.5C13.1355 1.5 16.5 4.8645 16.5 9C16.5 13.1355 13.1355 16.5 9 16.5C4.8645 16.5 1.5 13.1355 1.5 9C1.5 4.8645 4.8645 1.5 9 1.5ZM13.8352 8.32875L11.991 7.407L13.1662 6.624L12.3345 5.376L10.0845 6.876C9.97512 6.94888 9.88681 7.04923 9.82842 7.16698C9.77003 7.28474 9.74361 7.41578 9.75182 7.54696C9.76002 7.67815 9.80256 7.80487 9.87516 7.91444C9.94776 8.024 10.0479 8.11257 10.1655 8.17125L13.1655 9.67125L13.8352 8.32875ZM12 12.75C12 12.75 11.25 10.5 9 10.5C6.75 10.5 6 12.75 6 12.75H12ZM4.83525 9.67125L7.83525 8.17125C7.95286 8.11257 8.05299 8.024 8.12559 7.91444C8.1982 7.80487 8.24073 7.67815 8.24893 7.54696C8.25714 7.41578 8.23072 7.28474 8.17233 7.16698C8.11395 7.04923 8.02563 6.94888 7.91625 6.876L5.66625 5.376L4.8345 6.624L6.009 7.407L4.16475 8.32875L4.83525 9.67125Z" fill="#8F9A68"/>
</svg>
